<svg width="57" height="48" viewBox="0 0 57 48" fill="none" xmlns="http://www.w3.org/2000/svg">
<path d="M10 15V12C10 10.8954 10.8954 10 12 10H45C46.1046 10 47 10.8954 47 12V35.5C47 36.6046 46.105 37.5 45.0004 37.5C44.1808 37.5 43.2505 37.5 42.5 37.5M21.5 38C13.3118 38 9.07644 43.7773 7.60838 46.3213C7.20618 47.0182 6.47674 47.5 5.67205 47.5H3C1.89543 47.5 1 46.6046 1 45.5V3C1 1.89543 1.89543 1 3 1H54C55.1046 1 56 1.89543 56 3V45.5C56 46.6046 55.1046 47.5 54 47.5H37.7657C36.9928 47.5 36.2881 47.0577 35.8798 46.4015C34.324 43.9011 29.7755 38 21.5 38Z" stroke="#00324B" stroke-linecap="round"/>
<circle cx="21.5" cy="28.5" r="8.5" stroke="#00324B"/>
</svg>
