<svg width="60" height="63" viewBox="0 0 60 63" fill="none" xmlns="http://www.w3.org/2000/svg">
<path d="M19.2144 29.1376L50.2176 35.5356C57.1283 36.9617 57.0356 46.8663 50.1004 48.1654L18.9849 53.9773C11.195 55.4327 4.00098 49.4548 4.00098 41.5331C4.00098 33.5136 11.3659 27.5113 19.2193 29.1328L19.2144 29.1376Z" stroke="#00324B" stroke-linecap="round" stroke-linejoin="round"/>
<path d="M16.8532 46.0246C19.3319 46.0246 21.3412 44.0152 21.3412 41.5366C21.3412 39.0579 19.3319 37.0486 16.8532 37.0486C14.3746 37.0486 12.3652 39.0579 12.3652 41.5366C12.3652 44.0152 14.3746 46.0246 16.8532 46.0246Z" stroke="#00324B" stroke-linecap="round" stroke-linejoin="round"/>
<path d="M23.0988 29.937L19.3291 20.9004" stroke="#00324B" stroke-linecap="round" stroke-linejoin="round"/>
<path d="M51.0169 35.7538L45.0396 10.1916L55.9991 6.01579L54.6511 1" stroke="#00324B" stroke-linecap="round" stroke-linejoin="round"/>
<path d="M46.6631 48.8074L53.3052 56.3579" stroke="#00324B" stroke-linecap="round" stroke-linejoin="round"/>
<path d="M9.5686 52.5837L6.36475 55.6655" stroke="#00324B" stroke-linecap="round" stroke-linejoin="round"/>
<path d="M12.855 19.7466H24.1564" stroke="#00324B" stroke-linecap="round" stroke-linejoin="round"/>
</svg>
