<svg width="38" height="49" viewBox="0 0 38 49" fill="none" xmlns="http://www.w3.org/2000/svg">
<path d="M6.14286 47.2857C4.77889 47.2857 3.47078 46.7439 2.50631 45.7794C1.54183 44.8149 1 43.5068 1 42.1429V1H24.1429L37 13.8571V42.1429C37 43.5068 36.4582 44.8149 35.4937 45.7794C34.5292 46.7439 33.2211 47.2857 31.8571 47.2857H6.14286Z" stroke="#1A222C" stroke-linecap="round" stroke-linejoin="round"/>
<path d="M20.5713 2V17.4286H35.9999" stroke="#1A222C" stroke-linejoin="round"/>
<path d="M30 30.035H25.4783V39M25.4783 34.517H28.4287M9.00101 38.983V30.017H12.038C12.8413 30.0167 13.6118 30.3335 14.18 30.8976C14.7482 31.4617 15.0676 32.227 15.0679 33.025C15.0681 33.823 14.7493 34.5885 14.1814 35.153C13.6136 35.7175 12.8433 36.0347 12.04 36.035H9M17.2391 39V30H18.7752C19.9766 30 21.1288 30.4741 21.9783 31.318C22.8278 32.1619 23.305 33.3065 23.305 34.5C23.305 35.6935 22.8278 36.8381 21.9783 37.682C21.1288 38.5259 19.9766 39 18.7752 39H17.2391Z" stroke="#1A222C" stroke-width="0.7" stroke-linecap="round" stroke-linejoin="round"/>
</svg>
