<svg width="14" height="14" viewBox="0 0 14 14" fill="none" xmlns="http://www.w3.org/2000/svg">
<path d="M7.94031 6.99947L13.467 1.47281C13.5762 1.34527 13.6333 1.18122 13.6268 1.01344C13.6203 0.845653 13.5507 0.686494 13.432 0.567764C13.3133 0.449034 13.1541 0.379479 12.9863 0.372998C12.8186 0.366517 12.6545 0.423589 12.527 0.532806L7.00031 6.05947L1.47364 0.526139C1.34811 0.400603 1.17784 0.330078 1.00031 0.330078C0.822773 0.330078 0.65251 0.400603 0.526974 0.526139C0.401438 0.651675 0.330913 0.821938 0.330913 0.999473C0.330913 1.17701 0.401438 1.34727 0.526974 1.47281L6.06031 6.99947L0.526974 12.5261C0.457186 12.5859 0.400506 12.6595 0.360491 12.7422C0.320475 12.8249 0.297988 12.915 0.294442 13.0068C0.290896 13.0986 0.306366 13.1901 0.339882 13.2757C0.373399 13.3612 0.424238 13.4389 0.489207 13.5039C0.554177 13.5689 0.631876 13.6197 0.717426 13.6532C0.802976 13.6867 0.894531 13.7022 0.986343 13.6987C1.07816 13.6951 1.16824 13.6726 1.25095 13.6326C1.33366 13.5926 1.40721 13.5359 1.46697 13.4661L7.00031 7.93947L12.527 13.4661C12.6545 13.5754 12.8186 13.6324 12.9863 13.6259C13.1541 13.6195 13.3133 13.5499 13.432 13.4312C13.5507 13.3125 13.6203 13.1533 13.6268 12.9855C13.6333 12.8177 13.5762 12.6537 13.467 12.5261L7.94031 6.99947Z" fill="#00324B"/>
</svg>
