<svg width="18" height="11" viewBox="0 0 18 11" fill="none" xmlns="http://www.w3.org/2000/svg">
<path d="M6.00023 9.6H12.0002C12.1502 9.59972 12.2948 9.6556 12.4056 9.75661C12.5164 9.85763 12.5853 9.99646 12.5989 10.1458C12.6124 10.2951 12.5696 10.4441 12.4788 10.5634C12.3879 10.6827 12.2558 10.7637 12.1082 10.7904L12.0002 10.8H6.00023C5.85029 10.8003 5.70569 10.7444 5.59489 10.6434C5.48409 10.5424 5.41512 10.4035 5.40158 10.2542C5.38803 10.1049 5.43088 9.95591 5.52169 9.8366C5.6125 9.7173 5.74469 9.63631 5.89223 9.6096L6.00023 9.6H12.0002H6.00023ZM3.60023 4.8H14.4002C14.5502 4.79973 14.6948 4.8556 14.8056 4.95661C14.9164 5.05763 14.9853 5.19646 14.9989 5.34579C15.0124 5.49511 14.9696 5.64409 14.8788 5.7634C14.7879 5.88271 14.6558 5.96369 14.5082 5.9904L14.4002 6H3.60023C3.45029 6.00028 3.30569 5.94441 3.19489 5.84339C3.08409 5.74238 3.01512 5.60354 3.00158 5.45422C2.98803 5.30489 3.03088 5.15591 3.12169 5.0366C3.2125 4.9173 3.34469 4.83631 3.49223 4.8096L3.60023 4.8H14.4002H3.60023ZM1.20023 1.01783e-06H16.8002C16.9502 -0.000274998 17.0948 0.0555959 17.2056 0.156611C17.3164 0.257626 17.3853 0.396465 17.3989 0.545787C17.4124 0.695109 17.3696 0.844092 17.2788 0.963399C17.188 1.08271 17.0558 1.16369 16.9082 1.1904L16.8002 1.2H1.20023C1.05029 1.20028 0.905687 1.14441 0.794887 1.04339C0.684088 0.942376 0.615124 0.803537 0.601577 0.654215C0.588029 0.504893 0.63088 0.35591 0.721691 0.236603C0.812501 0.117297 0.94469 0.0363132 1.09223 0.00960089L1.20023 1.01783e-06H16.8002H1.20023Z" fill="#00324B"/>
</svg>
