<svg width="20" height="21" viewBox="0 0 20 21" fill="none" xmlns="http://www.w3.org/2000/svg">
<g clip-path="url(#clip0_671_6168)">
<path d="M10.0002 1.61108C8.24217 1.61108 6.52359 2.13241 5.06182 3.10913C3.60005 4.08586 2.46074 5.47411 1.78796 7.09834C1.11518 8.72257 0.93915 10.5098 1.28213 12.2341C1.62511 13.9584 2.47169 15.5422 3.71483 16.7854C4.95796 18.0285 6.54181 18.8751 8.26609 19.2181C9.99036 19.561 11.7776 19.385 13.4019 18.7122C15.0261 18.0395 16.4143 16.9001 17.3911 15.4384C18.3678 13.9766 18.8891 12.258 18.8891 10.5C18.8891 8.14249 17.9526 5.88157 16.2856 4.21458C14.6186 2.54759 12.3577 1.61108 10.0002 1.61108ZM10.0002 18.2778C8.46192 18.2778 6.95817 17.8216 5.67912 16.967C4.40007 16.1123 3.40317 14.8976 2.81449 13.4764C2.22581 12.0552 2.07178 10.4913 2.37189 8.9826C2.672 7.47386 3.41276 6.088 4.5005 5.00025C5.58824 3.91251 6.97411 3.17175 8.48285 2.87164C9.99159 2.57154 11.5554 2.72556 12.9767 3.31424C14.3979 3.90293 15.6126 4.89982 16.4672 6.17887C17.3218 7.45792 17.778 8.96167 17.778 10.5C17.778 12.5628 16.9586 14.5411 15.4999 15.9997C14.0413 17.4583 12.063 18.2778 10.0002 18.2778Z" fill="#8D8E91"/>
<path d="M10.1612 5.45552C9.55919 5.44557 8.96236 5.56833 8.41314 5.8151C7.86392 6.06187 7.37579 6.42657 6.98344 6.88329C6.92893 6.93381 6.88511 6.99475 6.85458 7.0625C6.82404 7.13025 6.80741 7.20344 6.80566 7.27774C6.80563 7.34628 6.81938 7.41414 6.8461 7.47726C6.87282 7.54038 6.91197 7.59749 6.96121 7.64517C7.01045 7.69286 7.06878 7.73015 7.13273 7.75483C7.19667 7.77952 7.26493 7.79109 7.33344 7.78885C7.48021 7.78521 7.62054 7.72789 7.72789 7.62774C8.02481 7.27978 8.39359 7.00029 8.80886 6.80848C9.22413 6.61667 9.67602 6.5171 10.1334 6.51663C11.4446 6.51663 12.2612 7.36107 12.2612 8.41107V8.43885C12.2612 9.66663 11.2834 10.35 9.739 10.4666C9.67646 10.469 9.61514 10.4846 9.55904 10.5124C9.50295 10.5401 9.45335 10.5794 9.41349 10.6277C9.37363 10.6759 9.34441 10.7321 9.32775 10.7924C9.31108 10.8527 9.30734 10.9159 9.31678 10.9777C9.31678 10.9777 9.31678 12.2666 9.31678 12.5055C9.33059 12.643 9.39517 12.7705 9.4979 12.8629C9.60063 12.9554 9.73413 13.0062 9.87233 13.0055H9.93344C10.071 12.9917 10.1984 12.9271 10.2908 12.8244C10.3833 12.7217 10.4341 12.5882 10.4334 12.45V11.3055C12.1001 11.0722 13.4501 10.1944 13.4501 8.37218V8.34441C13.4334 6.67774 12.1334 5.45552 10.1612 5.45552Z" fill="#8D8E91"/>
<path d="M9.87804 15.75C10.2616 15.75 10.5725 15.4391 10.5725 15.0555C10.5725 14.672 10.2616 14.3611 9.87804 14.3611C9.49451 14.3611 9.18359 14.672 9.18359 15.0555C9.18359 15.4391 9.49451 15.75 9.87804 15.75Z" fill="#8D8E91"/>
</g>
<defs>
<clipPath id="clip0_671_6168">
<rect width="20" height="20" fill="white" transform="translate(0 0.5)"/>
</clipPath>
</defs>
</svg>
