<svg width="52" height="52" viewBox="0 0 52 52" fill="none" xmlns="http://www.w3.org/2000/svg">
<path d="M51.0056 25.9916C51.0056 32.6909 48.3722 38.7735 44.0778 43.2619C43.5167 43.8563 42.9222 44.4173 42.3 44.9506C41.7278 45.4394 41.1389 45.9061 40.5222 46.3449C36.4278 49.2668 31.4167 50.9888 26.0056 50.9888C19.7556 50.9888 14.0389 48.6946 9.65556 44.9006C8.88889 44.2396 8.16111 43.5285 7.48333 42.7786C7.19444 42.462 6.91667 42.1398 6.65 41.8121C6.59444 41.7454 6.53889 41.6788 6.48889 41.6121C6.15 41.1899 5.82778 40.7622 5.51667 40.3233C5.47778 40.2734 5.44444 40.2234 5.40556 40.1678C4.82222 39.3235 4.29444 38.4458 3.82222 37.5403C3.60556 37.1237 3.4 36.7015 3.20556 36.2682C2.95 35.7072 2.71667 35.1295 2.50556 34.5462C1.53333 31.8798 1 28.9968 1 25.9916C1 20.0034 3.10556 14.504 6.62222 10.1989C7.10556 9.59898 7.62222 9.02682 8.16111 8.47689C12.7056 3.86073 19.0167 0.994385 26.0056 0.994385C39.8111 0.994385 51.0056 12.1876 51.0056 25.9916Z" stroke="#E1251B" stroke-width="0.7" stroke-linecap="round" stroke-linejoin="round"/>
<path d="M19.6829 26.2528C21.9043 26.2528 23.7051 24.4522 23.7051 22.231C23.7051 20.0098 21.9043 18.2092 19.6829 18.2092C17.4615 18.2092 15.6606 20.0098 15.6606 22.231C15.6606 24.4522 17.4615 26.2528 19.6829 26.2528Z" stroke="#E1251B" stroke-width="0.7" stroke-linecap="round" stroke-linejoin="round"/>
<path d="M18.7717 27.5305L19.3328 28.5415L18.0439 35.8074L19.6328 38.0016" stroke="#E1251B" stroke-width="0.7" stroke-linecap="round" stroke-linejoin="round"/>
<path d="M20.5828 27.5305L20.0217 28.5415L21.3161 35.8074L19.7217 38.0016" stroke="#E1251B" stroke-width="0.7" stroke-linecap="round" stroke-linejoin="round"/>
<path d="M12.9941 37.7182V34.1297C12.9941 30.4357 15.9886 27.436 19.6886 27.436C22.6608 27.436 25.1775 29.3747 26.0553 32.0522" stroke="#E1251B" stroke-width="0.7" stroke-linecap="round" stroke-linejoin="round"/>
<path d="M30.5778 31.0633C33.1797 31.0633 35.2889 28.9543 35.2889 26.3527C35.2889 23.7511 33.1797 21.6421 30.5778 21.6421C27.9759 21.6421 25.8667 23.7511 25.8667 26.3527C25.8667 28.9543 27.9759 31.0633 30.5778 31.0633Z" stroke="#E1251B" stroke-width="0.7" stroke-linecap="round" stroke-linejoin="round"/>
<path d="M22.7388 44.4896V40.2846C22.7388 35.9573 26.2499 32.4465 30.5777 32.4465C34.9054 32.4465 38.4165 35.9573 38.4165 40.2846V42.7454" stroke="#E1251B" stroke-width="0.7" stroke-linecap="round" stroke-linejoin="round"/>
<path d="M36.439 25.0027H38.2335L37.4279 28.1024L40.6779 25.0027H42.5612C43.6112 25.0027 44.4668 24.1473 44.4668 23.0974V14.7872C44.4668 13.7373 43.6112 12.8818 42.5612 12.8818H31.3724C30.3224 12.8818 29.4668 13.7373 29.4668 14.7872V20.7199" stroke="#E1251B" stroke-width="0.7" stroke-linecap="round" stroke-linejoin="round"/>
<path d="M21.3166 16.2759V14.0817C21.3166 13.4207 20.7777 12.8818 20.1166 12.8818H9.30547C8.64436 12.8818 8.10547 13.4207 8.10547 14.0817V21.0032C8.10547 21.6642 8.64436 22.203 9.30547 22.203H11.7166L13.8499 24.1806V22.203" stroke="#E1251B" stroke-width="0.7" stroke-linecap="round" stroke-linejoin="round"/>
</svg>
