<svg width="32" height="32" viewBox="0 0 32 32" fill="none" xmlns="http://www.w3.org/2000/svg">
<path d="M16 31.0001C24.2843 31.0001 31 24.2844 31 16.0001C31 7.71585 24.2843 1.00012 16 1.00012C7.71573 1.00012 1 7.71585 1 16.0001C1 24.2844 7.71573 31.0001 16 31.0001Z" stroke="#D0D4D9" stroke-width="0.7" stroke-linecap="round" stroke-linejoin="round"/>
<path d="M15.2818 10.665L14.8933 11.1921C13.9658 10.5941 12.8694 10.2494 11.7054 10.2461L11.5466 8.05325C11.5213 7.63597 11.1513 7.32344 10.7357 7.36905C10.3201 7.41466 10.0245 7.79815 10.0887 8.21205L10.4198 10.3221C9.28285 10.5772 8.28105 11.1516 7.50394 11.9405L5.89396 10.513C5.73347 10.3694 5.52567 10.3119 5.32802 10.3322C5.14219 10.3525 4.96311 10.4437 4.83641 10.6025C4.57286 10.9286 4.63706 11.4084 4.97494 11.655L6.71838 12.9271C6.1254 13.858 5.78753 14.9577 5.79091 16.12L3.63526 16.2501C3.62343 16.2501 3.61161 16.2501 3.59978 16.2535C3.1994 16.2974 2.90714 16.6573 2.94937 17.061C2.99498 17.4766 3.37847 17.7722 3.79237 17.7064L5.92606 17.3719C6.17102 18.5105 6.73696 19.5123 7.51745 20.2945L6.09162 21.8977V21.9011C5.94464 22.0616 5.88551 22.2677 5.90578 22.4653C5.92437 22.6529 6.01391 22.8319 6.17271 22.9586C6.49707 23.2239 6.97685 23.1631 7.22519 22.8269L8.50743 21.0919C8.73381 21.2389 8.97201 21.3689 9.21697 21.4838V20.3114C9.18656 20.2928 9.15446 20.2759 9.12405 20.2573L9.21697 20.1323V19.0511C9.21697 17.8533 9.94847 16.7755 11.0635 16.3346L14.4692 14.9848L14.6399 14.7804C14.503 14.4898 14.324 14.2246 14.1128 13.9897L15.1957 12.7683C15.4119 12.9913 15.6062 13.2346 15.7785 13.4964L15.9306 13.412M14.2783 12.03L13.3086 13.3444C12.8728 13.0944 12.3761 12.9423 11.8524 12.9153L11.7629 11.2867C12.6768 11.3002 13.5401 11.5688 14.2767 12.0317L14.2783 12.03ZM10.609 11.4033L10.8523 13.0166C10.3421 13.1501 9.88765 13.4001 9.51092 13.7346L8.29626 12.645C8.92471 12.0419 9.71702 11.6026 10.6107 11.4033H10.609ZM7.55969 13.5387L8.87909 14.5016C8.63075 14.9392 8.48209 15.4358 8.45844 15.9595L6.82987 16.0575C6.83832 15.1436 7.10355 14.2786 7.55969 13.5387ZM8.20841 19.5191C7.60192 18.894 7.15761 18.1034 6.95489 17.2114L8.56656 16.9597C8.70171 17.4682 8.95511 17.9226 9.29299 18.2976L8.2101 19.5191H8.20841Z" stroke="#D0D4D9" stroke-width="0.7" stroke-linecap="round" stroke-linejoin="round"/>
<path d="M21.0109 7.77446C21.2238 8.27452 21.2964 8.86242 21.168 9.52128L21.6664 10.3981C21.8488 10.719 21.6174 11.1194 21.2474 11.1194H21.0599V12.6517C21.0599 13.0909 20.6764 13.4305 20.2405 13.3781L19.5716 13.297V14.7702L19.5682 14.7752C19.0715 14.9425 18.5393 15.0337 17.9852 15.0337C17.2453 15.0337 16.5425 14.8715 15.9124 14.581L15.9073 14.5691V11.4843C15.9073 11.4843 13.7297 9.41654 15.4714 7.09364C16.6118 5.57151 18.8181 5.60192 20.1459 6.65778" stroke="#D0D4D9" stroke-width="0.7" stroke-linecap="round" stroke-linejoin="round"/>
<path d="M18.6357 19.7657L18.0748 16.4782L18.3941 16.1335L17.9396 15.3632H17.5629L17.0713 16.1335L17.3923 16.4782L16.8416 19.7015" stroke="#D0D4D9" stroke-width="0.7" stroke-linecap="round" stroke-linejoin="round"/>
<path d="M16.2063 10.8796V10.2917C16.2063 9.87442 16.5441 9.53654 16.9614 9.53654H17.1152C17.1929 9.53654 17.2554 9.59905 17.2554 9.67676C17.2554 9.9403 17.4682 10.1532 17.7318 10.1532V8.78308C17.7318 8.68847 17.7267 8.59387 17.7149 8.50095L17.6152 7.69512C17.5899 7.49408 17.7706 7.32852 17.9683 7.36907L18.3501 7.44847C18.617 7.50422 18.889 7.52618 19.161 7.51266L20.5733 7.44847C21.097 7.42482 21.5481 7.06836 21.6917 6.56492L21.7998 6.18988L21.6342 6.21184C20.901 6.30814 20.1543 6.1865 19.4904 5.86214L19.1559 5.69996C19.1559 5.69996 19.1441 5.69489 19.1373 5.69151C18.3332 5.30633 17.3939 5.31816 16.5796 5.68307L16.0981 5.89931" stroke="#D0D4D9" stroke-width="0.7" stroke-linecap="round" stroke-linejoin="round"/>
<path d="M9.21729 21.4839V24.937" stroke="#D0D4D9" stroke-width="0.7" stroke-linecap="round" stroke-linejoin="round"/>
<path d="M20.0292 13.7954L17.7705 23.4722L21.4263 17.7604L21.0124 16.321L21.5209 15.9612L21.0226 14.983L20.0292 13.7954Z" stroke="#D0D4D9" stroke-width="0.7" stroke-linecap="round" stroke-linejoin="round"/>
<path d="M21.0227 14.9832L22.783 15.6809" stroke="#D0D4D9" stroke-width="0.7" stroke-linecap="round" stroke-linejoin="round"/>
<path d="M15.4612 13.7954L17.7216 23.4722L14.0658 17.7604L14.478 16.321L13.9712 15.9612L14.4679 14.983L15.4612 13.7954Z" stroke="#D0D4D9" stroke-width="0.7" stroke-linecap="round" stroke-linejoin="round"/>
<path d="M24.9334 19.2048C24.7797 19.0342 24.4993 18.9565 24.4993 18.6743C24.4993 18.2858 25.0314 18.2858 25.0314 17.8955C25.0314 17.5053 24.4993 17.5053 24.4993 17.1167C24.4993 16.7282 25.0314 16.7282 25.0314 16.3379C25.0314 15.9477 24.4993 15.9477 24.4993 15.5591C24.4993 15.1706 25.0314 15.1706 25.0314 14.7803C25.0314 14.3901 24.4993 14.3901 24.4993 14.0015C24.4993 13.613 25.0314 13.6113 25.0314 13.221C25.0314 12.8308 24.4993 12.8308 24.4993 12.4405L24.2222 11.3019C24.1969 11.1972 24.104 11.1245 23.9958 11.1245C23.9333 11.1245 23.8725 11.1499 23.8286 11.1955L23.0751 11.9692C22.8876 12.1618 22.7829 12.4203 22.7829 12.6906V19.2589C21.526 19.7251 20.6289 20.933 20.6289 22.3521C20.6289 24.1767 22.1071 25.6549 23.9316 25.6549C25.7562 25.6549 27.2344 24.1767 27.2344 22.3521C27.2344 20.8773 26.2681 19.6305 24.9351 19.2065L24.9334 19.2048ZM23.9316 24.7815C23.4502 24.7815 23.0599 24.3912 23.0599 23.9097C23.0599 23.4283 23.4502 23.038 23.9316 23.038C24.4131 23.038 24.8034 23.4283 24.8034 23.9097C24.8034 24.3912 24.4131 24.7815 23.9316 24.7815Z" stroke="#D0D4D9" stroke-width="0.7" stroke-linecap="round" stroke-linejoin="round"/>
</svg>
