<svg width="14" height="17" viewBox="0 0 14 17" fill="none" xmlns="http://www.w3.org/2000/svg">
<path d="M12.625 5.125H9.25C9.05109 5.125 8.86032 5.04598 8.71967 4.90533C8.57902 4.76468 8.5 4.57391 8.5 4.375V1M12.625 5.125V14.875C12.625 15.0739 12.546 15.2647 12.4053 15.4053C12.2647 15.546 12.0739 15.625 11.875 15.625H1.75C1.55109 15.625 1.36032 15.546 1.21967 15.4053C1.07902 15.2647 1 15.0739 1 14.875V1.75C1 1.55109 1.07902 1.36032 1.21967 1.21967C1.36032 1.07902 1.55109 1 1.75 1H8.5M12.625 5.125L8.5 1" stroke="white" stroke-width="1.5" stroke-linecap="round" stroke-linejoin="round"/>
<path d="M10.7241 8.51312H9.03963V11.875M9.03963 10.1939H10.1388M2.90125 11.8686V8.50638H4.03263C4.33189 8.50628 4.61894 8.62506 4.83062 8.8366C5.0423 9.04814 5.16128 9.33511 5.16138 9.63437C5.16148 9.93364 5.04269 10.2207 4.83115 10.4324C4.61961 10.644 4.33264 10.763 4.03338 10.7631H2.90088M5.97025 11.875V8.5H6.5425C6.99006 8.5 7.41928 8.67779 7.73575 8.99426C8.05221 9.31073 8.23 9.73995 8.23 10.1875C8.23 10.6351 8.05221 11.0643 7.73575 11.3807C7.41928 11.6972 6.99006 11.875 6.5425 11.875H5.97025Z" stroke="white" stroke-width="0.7" stroke-linecap="round" stroke-linejoin="round"/>
</svg>
