<svg width="334" height="182" viewBox="0 0 334 182" fill="none" xmlns="http://www.w3.org/2000/svg">
<g style="mix-blend-mode:multiply">
<path d="M198.618 27.7236C205.033 27.7236 210.233 21.5613 210.233 13.9598C210.233 6.35829 205.033 0.196045 198.618 0.196045C192.204 0.196045 187.004 6.35829 187.004 13.9598C187.004 21.5613 192.204 27.7236 198.618 27.7236Z" fill="#D0D4D9"/>
</g>
<g style="mix-blend-mode:multiply">
<path d="M305.047 71.5091C307.239 71.5091 309.017 69.4027 309.017 66.8043C309.017 64.206 307.239 62.0996 305.047 62.0996C302.854 62.0996 301.076 64.206 301.076 66.8043C301.076 69.4027 302.854 71.5091 305.047 71.5091Z" fill="#E41910"/>
</g>
<g style="mix-blend-mode:multiply">
<path d="M287.174 33.659L333 10.4448" stroke="#D0D4D9" stroke-width="1.5"/>
</g>
<path d="M276.516 48.1219C280.582 48.1219 283.879 44.2154 283.879 39.3966C283.879 34.5778 280.582 30.6714 276.516 30.6714C272.45 30.6714 269.153 34.5778 269.153 39.3966C269.153 44.2154 272.45 48.1219 276.516 48.1219Z" fill="#D0D4D9"/>
<g clip-path="url(#clip0_568_14896)">
<path d="M138.34 96.4318L142.592 102.92L153.409 98.0051L150.741 90.9641C154.323 88.6711 157.514 85.8777 160.203 82.68L167.695 85.5773L173.391 75.6189L166.847 71.401C167.634 69.3292 168.243 67.201 168.667 65.0372C169.021 63.1963 169.237 61.3344 169.315 59.4651L177.182 57.656L175.58 46.4444L167.652 46.66C166.439 42.747 164.6 39.031 162.199 35.6404L167.441 29.8122L159.155 21.6427L152.876 26.1941C149.457 23.693 145.649 21.7034 141.587 20.2951L142.195 12.6815L130.394 10.6602L128.163 17.8258C123.83 17.6881 119.502 18.1801 115.328 19.2845L111.077 12.7994L100.256 17.7011L102.92 24.7421C99.3416 27.0359 96.1548 29.8292 93.4685 33.0261L85.9769 30.1289L80.2804 40.0873L86.828 44.3051C85.3594 48.1408 84.526 52.1666 84.357 56.2411L76.4899 58.0502L78.0919 69.2618L86.0198 69.0462C87.2334 72.9594 89.0736 76.6753 91.4767 80.0658L86.2308 85.8939L94.5127 94.0736L100.792 89.5087C104.211 92.0131 108.019 94.0072 112.081 95.4211L111.474 103.035L123.274 105.056L125.516 97.8905C127.614 97.9549 129.714 97.8716 131.799 97.6412M109.517 41.92C113.757 37.842 119.473 35.42 125.525 35.1372C131.577 34.8544 137.519 36.7315 142.166 40.3941C146.814 44.0566 149.825 49.2353 150.598 54.8969C151.371 60.5584 149.85 66.2865 146.339 70.9383C142.827 75.59 137.583 78.8234 131.652 79.9932C125.722 81.1631 119.541 80.1834 114.343 77.2496C109.146 74.3158 105.313 69.6437 103.611 64.1655C101.908 58.6872 102.461 52.8056 105.158 47.6942" stroke="#B3B3B3" stroke-width="0.65" stroke-miterlimit="10"/>
<path d="M54.0686 94.1577C50.6581 95.6218 46.7975 95.8621 43.2123 94.8334C39.6271 93.8047 36.5641 91.5778 34.599 88.5713C32.6338 85.5648 31.9019 81.9857 32.5407 78.5065C33.1796 75.0274 35.1451 71.8879 38.0681 69.6779C40.991 67.468 44.67 66.3398 48.4137 66.5055C52.1574 66.6711 55.708 68.1192 58.3982 70.5774C61.0884 73.0357 62.733 76.335 63.0229 79.8552C63.3128 83.3754 62.228 86.8742 59.9725 89.694M21.0338 76.3903C20.8108 77.558 20.6722 78.7387 20.619 79.9242L15.6127 81.073L16.6318 88.2083L21.6775 88.0735C22.451 90.5638 23.6218 92.9288 25.1498 95.0875L21.8098 98.7933L27.0879 103.998L31.0859 101.094C33.2591 102.687 35.6798 103.955 38.2628 104.854L37.873 109.698L45.3825 110.992L46.8129 106.431C49.5679 106.513 52.32 106.197 54.9733 105.494L57.6803 109.621L64.5676 106.505L62.869 102.024C65.1464 100.569 67.1767 98.7967 68.8909 96.7686L73.6648 98.608L77.2908 92.2678L73.1249 89.5727C74.0603 87.1317 74.5898 84.5692 74.6947 81.9759L79.701 80.8237L78.6712 73.7019L73.6291 73.84C72.8564 71.3495 71.6856 68.9844 70.1568 66.826L73.4932 63.1203L68.2186 57.912L64.2207 60.8159C62.0445 59.2252 59.6215 57.9595 57.0366 57.063L57.4228 52.2152L49.9133 50.9249L48.4829 55.483C45.7277 55.3997 42.9753 55.7167 40.3226 56.4229L37.6263 52.2994L30.7533 55.4089L32.4483 59.8895C30.1704 61.3485 28.1421 63.1263 26.4335 65.1618L21.6668 63.319L18.0264 69.6559L22.1924 72.351C21.6902 73.6655 21.3027 75.0164 21.0338 76.3903Z" stroke="#B3B3B3" stroke-width="0.65" stroke-miterlimit="10"/>
<path d="M111.674 119.532H73.0283V120.769H111.674V119.532Z" fill="#02324A" stroke="#02324A" stroke-width="0.65" stroke-miterlimit="10"/>
<path d="M74.8342 120.381H74.0296V154.723H74.8342V120.381Z" fill="#02324A" stroke="#02324A" stroke-width="0.65" stroke-miterlimit="10"/>
<path d="M83.2913 127.84L109.46 144.149" stroke="#02324A" stroke-width="0.65" stroke-miterlimit="10"/>
<path d="M109.46 127.84L83.2913 144.149" stroke="#02324A" stroke-width="0.65" stroke-miterlimit="10"/>
<path d="M83.5595 120.381H82.7549V154.723H83.5595V120.381Z" fill="#02324A" stroke="#02324A" stroke-width="0.65" stroke-miterlimit="10"/>
<path d="M101.275 120.381H100.47V154.723H101.275V120.381Z" fill="#02324A" stroke="#02324A" stroke-width="0.65" stroke-miterlimit="10"/>
<path d="M109.997 120.381H109.192V154.723H109.997V120.381Z" fill="#02324A" stroke="#02324A" stroke-width="0.65" stroke-miterlimit="10"/>
<path d="M74.4337 127.84L100.603 144.149" stroke="#02324A" stroke-width="0.65" stroke-miterlimit="10"/>
<path d="M100.603 127.84L74.4337 144.149" stroke="#02324A" stroke-width="0.65" stroke-miterlimit="10"/>
<path d="M110.004 144.149H83.5631" stroke="#02324A" stroke-width="0.65" stroke-miterlimit="10"/>
<path d="M100.871 144.149H74.4337" stroke="#02324A" stroke-width="0.65" stroke-miterlimit="10"/>
<path d="M32.8702 124.006C32.8702 124.006 33.7785 130.07 33.7785 130.467C33.7785 130.865 33.0347 134.045 33.3637 136.457C33.6927 138.869 35.0981 148.922 35.0981 149.387C35.0981 149.852 34.8227 150.573 34.222 151.985C33.6212 153.396 33.6748 154.808 33.8644 155.326C34.0539 155.845 34.9121 155.842 35.8097 155.326C36.7072 154.811 37.5977 154.104 37.7085 152.598C37.8194 151.092 37.4582 149.633 37.4081 148.926C37.3581 148.218 38.3093 138.674 38.7598 136.697C39.2104 134.719 39.1568 129.639 39.1568 129.639L39.8076 124.225L32.8702 124.006Z" fill="white" stroke="#02324A" stroke-width="0.65" stroke-miterlimit="10"/>
<path d="M35.8204 155.327C36.7216 154.808 37.6084 154.104 37.7193 152.598C37.7549 151.937 37.7298 151.274 37.6442 150.617C37.426 151.22 37.047 152.18 36.5714 152.301C35.9635 152.446 34.2184 151.995 34.2184 151.995C33.6212 153.406 33.6713 154.818 33.8608 155.337C34.0503 155.855 34.9229 155.842 35.8204 155.327Z" fill="#02324A" stroke="#02324A" stroke-width="0.65" stroke-miterlimit="10"/>
<path d="M53.8505 121.601C53.8505 121.601 55.6813 127.351 55.6813 127.567C55.6813 127.782 57.9485 146.682 58.5421 147.689C59.1357 148.696 61.7605 152.652 62.4363 152.938C63.1122 153.224 63.8667 153.659 63.2731 153.949C62.6795 154.238 60.4517 154.454 59.6113 154.38C58.771 154.306 56.4824 152.294 55.642 152.022C54.8017 151.749 53.4964 151.516 53.7324 150.583C53.9685 149.65 54.8768 148.427 54.9554 147.42C55.0341 146.412 52.7634 138.802 51.8479 135.568C50.9325 132.334 50.4211 128.935 50.4211 128.935L47.5997 124.188L53.8505 121.601Z" fill="white" stroke="#02324A" stroke-width="0.65" stroke-miterlimit="10"/>
<path d="M62.4542 152.938C62.1466 152.81 61.4636 151.958 60.7449 150.96L59.4754 151.715C59.4754 151.715 56.8792 150.637 55.8994 149.488C55.4274 148.942 55.0448 148.528 54.773 148.242C54.469 149.04 53.9291 149.879 53.761 150.566C53.5321 151.499 54.8338 151.715 55.6706 152.005C56.5073 152.294 58.7995 154.306 59.6399 154.363C60.4802 154.42 62.6938 154.221 63.3017 153.932C63.9096 153.642 63.1408 153.228 62.4542 152.938Z" fill="#02324A" stroke="#02324A" stroke-width="0.65" stroke-miterlimit="10"/>
<path d="M61.4744 85.3145L66.4164 89.9062L79.5902 89.0202L79.7225 90.7586C79.7225 90.7586 65.8907 94.7473 65.3615 94.7473C64.8322 94.7473 57.9843 88.1073 57.9843 88.1073L61.4744 85.3145Z" fill="white" stroke="#02324A" stroke-width="0.65" stroke-miterlimit="10"/>
<path d="M36.3139 96.7922C36.3139 96.7922 32.291 100.427 30.3957 104.396C28.8965 107.552 28.6046 111.099 29.5697 114.435C30.2312 116.925 32.1301 125.098 32.1301 125.098C32.1301 125.098 42.1427 125.485 46.5841 124.862C49.3281 124.469 51.9987 123.71 54.5156 122.608C54.5156 122.608 51.7013 111.79 50.7787 108.897C49.8561 106.003 49.0443 103.759 49.0443 103.759L49.3769 99.7905L36.3139 96.7922Z" fill="#02324A" stroke="#02324A" stroke-width="0.65" stroke-miterlimit="10"/>
<path d="M48.8298 76.0029L47.2492 79.4156C47.2492 79.4156 43.6911 81.1 42.2429 81.8378C40.8852 82.5075 39.8485 83.6383 39.3428 85.0012C38.8171 86.3656 37.6335 93.7603 37.5548 93.9388C37.4761 94.1174 36.2388 96.0478 36.3032 96.7923C36.3676 97.5368 39.2677 101.199 43.2191 101.569C47.1706 101.94 48.6689 100.926 48.8012 100.741C48.9335 100.555 51.3866 97.3515 51.9802 97.1022C53.2318 96.4232 54.4412 95.6774 55.6027 94.8686C56.1963 94.4341 57.9735 89.1416 57.9735 89.1416L61.4744 85.3145C61.4744 85.3145 60.7592 84.1354 58.1809 82.2825C55.6027 80.4296 48.8298 76.0029 48.8298 76.0029Z" fill="#E41910" stroke="#02324A" stroke-width="0.65" stroke-miterlimit="10"/>
<path d="M47.2492 79.4156L45.4969 80.2477C45.9797 80.9215 47.4458 83.0674 47.7748 85.1865C48.1718 87.7333 48.1718 88.2185 48.1718 88.2185L54.6907 88.1544C55.2336 85.3317 55.1276 82.4322 54.3796 79.6514C51.6762 77.8423 48.8297 75.9928 48.8297 75.9928L47.2492 79.4156Z" fill="white" stroke="#02324A" stroke-width="0.65" stroke-miterlimit="10"/>
<path d="M58.4848 68.2612C57.498 67.505 56.2766 67.0721 55.0054 67.0282C53.3891 67.0282 49.3018 68.0928 47.6819 69.3864C46.0619 70.6801 45.4004 73.3112 45.1787 75.3291C44.957 77.3471 44.6387 77.6873 45.5363 78.6407C46.4338 79.5941 47.8142 79.9276 48.2361 80.0422C48.6581 80.1567 48.6545 78.9742 48.9513 78.5834C49.2481 78.1927 50.2136 77.0136 50.2136 77.0136C50.2136 77.0136 51.7155 75.7233 52.5559 75.7233C53.3962 75.7233 57.5372 74.7699 58.0164 74.433C58.1544 74.3427 58.3231 74.304 58.4898 74.3246C58.6564 74.3451 58.8089 74.4234 58.9175 74.5442L59.2751 76.6194C59.2751 76.6194 60.895 76.7878 61.5566 76.397C62.2181 76.0063 62.7545 74.4903 62.6294 73.5908C62.2932 71.0776 60.7663 68.0389 58.4848 68.2612Z" fill="#02324A" stroke="#02324A" stroke-width="0.65" stroke-miterlimit="10"/>
<path d="M49.1588 79.3549C49.4234 80.4093 50.4747 82.5183 50.607 83.0775C50.7393 83.6367 51.6619 84.2566 52.5845 84.0713C53.5071 83.886 56.2714 82.7676 57.0616 81.8984C57.8519 81.0292 58.3132 79.4155 58.4455 78.7956C58.5779 78.1758 59.7651 76.8114 59.8938 76.0669C60.0225 75.3223 59.2358 72.2196 59.2358 72.2196C57.7596 73.034 56.2185 73.739 54.6264 74.3285C53.4458 74.7377 52.1665 74.8241 50.936 74.5778C50.936 74.5778 50.936 75.1977 50.5427 75.1337C50.1493 75.0697 50.5427 74.7631 49.7524 74.4599C48.9621 74.1567 48.2362 74.9551 48.1718 75.7637C48.1074 76.5722 48.5652 77.4986 48.9621 77.7479" fill="white"/>
<path d="M49.1588 79.3549C49.4234 80.4093 50.4747 82.5183 50.607 83.0775C50.7393 83.6367 51.6619 84.2566 52.5845 84.0713C53.5071 83.886 56.2714 82.7676 57.0616 81.8984C57.8519 81.0292 58.3132 79.4155 58.4455 78.7956C58.5779 78.1758 59.7651 76.8114 59.8938 76.0669C60.0225 75.3223 59.2358 72.2196 59.2358 72.2196C57.7596 73.034 56.2185 73.739 54.6264 74.3285C53.4458 74.7377 52.1665 74.8241 50.936 74.5778C50.936 74.5778 50.936 75.1977 50.5427 75.1337C50.1493 75.0697 50.5427 74.7631 49.7524 74.4599C48.9621 74.1567 48.2362 74.9551 48.1718 75.7637C48.1074 76.5722 48.5652 77.4986 48.9621 77.7479" stroke="#02324A" stroke-width="0.65" stroke-miterlimit="10"/>
<path d="M90.3646 65.4852H64.303C63.9337 65.4852 63.6343 65.7673 63.6343 66.1152V91.4256C63.6343 91.7735 63.9337 92.0556 64.303 92.0556H90.3646C90.7339 92.0556 91.0333 91.7735 91.0333 91.4256V66.1152C91.0333 65.7673 90.7339 65.4852 90.3646 65.4852Z" fill="white" stroke="#02324A" stroke-width="0.65" stroke-miterlimit="10"/>
<path d="M40.5944 90.0309C40.5944 90.0309 48.9621 100.208 49.7524 100.394C50.5427 100.579 67.9898 95.2426 68.3259 95.118C68.6621 94.9933 73.0677 93.5076 73.2679 93.383C73.4682 93.2583 75.8355 92.6385 76.0321 92.4498C76.2288 92.2611 75.2419 92.1399 75.2419 92.1399H69.8422C69.8422 92.1399 71.1581 91.1494 71.6301 90.7755C72.1022 90.4015 71.9591 89.3471 71.4978 89.6604C71.0365 89.9737 69.7098 90.9001 69.7098 90.9001C69.7098 90.9001 67.6036 91.4593 67.271 91.9108C66.8111 92.6968 66.3934 93.5041 66.0194 94.3296L52.3199 95.3841L46.062 87.6727L40.5944 90.0309Z" fill="white" stroke="#02324A" stroke-width="0.65" stroke-miterlimit="10"/>
<path d="M40.7267 82.9563C40.7267 82.9563 39.214 83.2056 39.2963 86.1837C39.3101 87.8327 39.5091 89.4758 39.8899 91.0854L47.1348 88.4813C47.1348 88.4813 45.9476 85.3785 45.1573 84.57" fill="#E41910"/>
<path d="M40.7267 82.9563C40.7267 82.9563 39.214 83.2056 39.2963 86.1837C39.3101 87.8327 39.5091 89.4758 39.8899 91.0854L47.1348 88.4813C47.1348 88.4813 45.9476 85.3785 45.1573 84.57" stroke="#02324A" stroke-width="0.65" stroke-miterlimit="10"/>
<path d="M106.253 92.7968H80.191C79.8217 92.7968 79.5223 93.0788 79.5223 93.4267V118.737C79.5223 119.085 79.8217 119.367 80.191 119.367H106.253C106.622 119.367 106.921 119.085 106.921 118.737V93.4267C106.921 93.0788 106.622 92.7968 106.253 92.7968Z" fill="#007CFF" stroke="#02324A" stroke-width="0.43" stroke-miterlimit="10"/>
<path d="M115.303 82.2622C115.303 82.2622 108.931 71.246 108.67 71.0001C108.409 70.7542 106.882 70.5554 106.635 70.6059C106.388 70.6565 103.66 71.0001 103.66 71.0001C103.66 71.0001 100.266 70.6632 100.109 71.0473C99.9517 71.4313 102.355 72.4251 102.877 72.6239C103.399 72.8227 107.365 73.4088 107.365 73.4088L111.28 85.0651L115.303 82.2622Z" fill="#D6D6D6" stroke="#02324A" stroke-width="0.43" stroke-miterlimit="10"/>
<path d="M120.649 99.4637L120.903 107.445C120.903 107.445 121.336 132.819 122.416 135.218C123.496 137.616 125.219 145.28 125.219 145.28C125.219 145.28 124.583 145.28 124.708 146.119C124.79 146.717 124.833 147.319 124.837 147.922C124.837 147.922 123.628 149.121 122.799 149.96C121.969 150.799 120.063 151.159 120.699 151.819C121.336 152.48 123.117 152.598 124.837 152.54C126.557 152.483 128.084 151.159 128.72 150.92C129.357 150.681 131.202 150.499 131.459 149.96C131.717 149.421 131.077 147.14 131.077 147.14C131.077 147.14 131.013 145.402 131.013 145.102C131.013 144.802 130.63 144.428 130.566 144.021C130.501 143.613 129.675 131.893 129.493 130.946C129.31 129.999 129.807 115.634 129.807 115.634C129.807 115.634 133.237 131.839 133.809 133.577C134.381 135.315 137.821 145.574 137.821 145.574C137.821 145.574 137.313 146.584 137.503 146.955C137.692 147.325 138.712 148.872 138.712 148.872C139.21 149.809 139.657 150.771 140.049 151.752C140.432 152.833 141.837 155.35 142.978 154.572C144.118 153.794 144.633 152.113 144.379 151.152C144.126 150.192 142.534 147.615 142.47 147.447C142.406 147.278 142.152 145.762 142.023 144.688C141.894 143.613 141.833 144.149 141.705 143.128C141.576 142.107 140.632 129.511 140.632 129.511L139.684 107.549C139.986 106.127 140.029 104.666 139.813 103.23C139.6 101.994 139.303 100.772 138.923 99.5716L120.649 99.4637Z" fill="#02324A" stroke="#02324A" stroke-width="0.43" stroke-miterlimit="10"/>
<path d="M130.337 74.1467C130.337 74.1467 124.179 73.7525 123.288 73.9008C122.398 74.049 120.939 75.474 120.939 75.474L116.973 83.246L115.614 81.9692L111.177 86.15C111.524 87.2519 112.118 88.2708 112.918 89.1382C114.17 90.4184 115.268 91.5469 115.632 91.3516C115.997 91.1562 120.485 87.9052 120.485 87.9052V97.1662C120.485 97.1662 119.544 99.2314 119.805 99.6255C120.066 100.02 120.903 100.299 120.903 100.299C120.903 100.299 127.637 101.984 131.971 101.647C136.305 101.31 139.645 100.417 139.802 100.07C139.96 99.7232 139.488 97.4661 139.488 97.3178C139.488 97.1696 141.315 86.1028 141.315 86.1028C141.436 86.2208 144.383 80.0928 142.359 77.1012C141.258 75.4707 136.773 75.0799 136.773 75.0799L130.337 74.1467Z" fill="#E41910" stroke="#02324A" stroke-width="0.43" stroke-miterlimit="10"/>
<path d="M127.808 76.8182L128.041 79.5571L124.515 95.0775L126.31 98.3487L129.482 94.8518L129.124 79.8064L131.395 77.7211L129.421 75.4673L127.808 76.8182Z" fill="#02324A" stroke="#02324A" stroke-width="0.43" stroke-miterlimit="10"/>
<path d="M116.973 83.246L119.251 85.7794" stroke="#02324A" stroke-width="0.43" stroke-miterlimit="10"/>
<path d="M118.722 84.4285C118.722 84.4285 119.977 85.776 119.977 86.0051" stroke="#02324A" stroke-width="0.43" stroke-miterlimit="10"/>
<path d="M126.997 75.6222L126.371 77.8355L128.302 77.2965L126.997 75.6222Z" fill="#E41910" stroke="#02324A" stroke-width="0.43" stroke-miterlimit="10"/>
<path d="M130.233 77L131.903 80.3453L136.759 75.0831L136.291 73.4593L135.507 73.0652L129.292 73.6547L126.997 75.6222L129.031 78.0343L130.233 77Z" fill="#E41910" stroke="#02324A" stroke-width="0.43" stroke-miterlimit="10"/>
<path d="M131.381 58.0266C131.381 58.0266 129.554 59.1113 128.77 60.1927C127.987 61.2742 128.055 62.5038 127.937 63.0462C127.819 63.5886 126.528 66.2432 126.421 67.0282C126.314 67.8131 126.736 71.1618 127.258 71.9468C127.78 72.7317 129.346 72.8833 129.346 72.8833C129.346 72.8833 128.824 78.0478 129.031 78.0478C129.239 78.0478 134.828 74.6048 135.193 74.0624C135.558 73.52 136.03 71.6537 136.133 71.5054C136.237 71.3572 138.114 70.5891 138.901 69.8816C139.232 69.5915 139.482 69.2284 139.627 68.8251C139.772 68.4217 139.809 67.9907 139.734 67.5706C139.734 67.5706 141.039 64.9125 140.414 62.2073C139.788 59.5021 138.39 58.7509 136.03 57.9659C133.669 57.181 132.582 57.72 131.381 58.0266Z" fill="#D7DEE2" stroke="#02324A" stroke-width="0.43" stroke-miterlimit="10"/>
<path d="M140.414 62.1939C139.788 59.4988 138.379 58.7509 136.03 57.9659C133.68 57.181 132.582 57.72 131.381 58.0131C131.381 58.0131 131.07 58.1984 130.666 58.4915C131.213 58.4443 133.144 58.3466 134.739 59.0979C136.616 59.9805 137.714 62.0962 137.242 62.588C136.77 63.0799 136.198 63.6223 136.459 63.9659C136.809 64.6333 137.05 65.3465 137.174 66.0816C137.12 66.2298 136.13 67.6548 136.287 67.8502C136.444 68.0456 137.174 68.3421 137.331 68.0962C137.489 67.8502 137.8 67.2135 138.583 67.2135C138.997 67.1873 139.406 67.3074 139.731 67.5504C139.731 67.5504 141.04 64.8991 140.414 62.1939Z" fill="#02324A" stroke="#02324A" stroke-width="0.43" stroke-miterlimit="10"/>
<path d="M129.346 72.8698C129.749 72.8783 130.152 72.8444 130.548 72.7688C130.755 72.6711 132.271 72.2297 132.271 72.2297C132.271 72.2297 130.809 73.7525 130.337 74.1466C129.972 74.4264 129.569 74.6587 129.139 74.8372L129.346 72.8698Z" fill="#02324A" stroke="#02324A" stroke-width="0.43" stroke-miterlimit="10"/>
<path d="M120.858 46.1721L94.8497 44.5962C94.4812 44.5739 94.1632 44.8373 94.1395 45.1845L92.4151 70.4427C92.3914 70.7899 92.6709 71.0894 93.0395 71.1118L119.047 72.6876C119.416 72.71 119.734 72.4466 119.758 72.0994L121.482 46.8412C121.506 46.494 121.226 46.1944 120.858 46.1721Z" fill="#02324A" stroke="#02324A" stroke-width="0.43" stroke-miterlimit="10"/>
<path d="M127.451 79.3044L119.08 70.8047C118.689 70.212 118.258 69.6437 117.789 69.1035C117.481 68.8542 116.305 68.7666 116.065 68.9148C115.825 69.063 113.962 68.6857 113.637 68.6352C113.538 68.621 113.437 68.6368 113.348 68.6802C113.26 68.7236 113.188 68.7924 113.143 68.8767C113.099 68.9609 113.084 69.0564 113.101 69.1492C113.117 69.242 113.165 69.3274 113.236 69.3932C113.371 69.5645 113.544 69.7051 113.744 69.8042C113.944 69.9034 114.166 69.9587 114.391 69.9659C114.811 69.9826 115.227 70.0367 115.636 70.1276C115.636 70.1276 113.801 71.1383 113.455 71.3C113.108 71.4617 109.339 71.9737 109.028 72.3106C108.716 72.6475 109.489 72.8395 109.804 72.8395C110.191 72.9005 110.567 73.0139 110.919 73.1764C111.091 73.2505 112.167 73.985 113.154 73.8873C114.141 73.7896 117.481 73.5335 117.481 73.5335L124.519 82.5857L127.451 79.3044Z" fill="#D6D6D6" stroke="#02324A" stroke-width="0.43" stroke-miterlimit="10"/>
<path d="M138.847 76.2623C138.209 76.5881 137.67 77.0625 137.281 77.6402C136.813 78.4757 130.945 81.8311 130.945 81.8311L128.041 79.5571L124.647 83.0506C124.647 83.0506 129.103 88.3768 130.043 88.7238C130.984 89.0708 131.924 89.0607 132.289 88.8215C132.654 88.5823 141.966 83.246 141.966 83.246" fill="#E41910"/>
<path d="M138.847 76.2623C138.209 76.5881 137.67 77.0625 137.281 77.6402C136.813 78.4757 130.945 81.8311 130.945 81.8311L128.041 79.5571L124.647 83.0506C124.647 83.0506 129.103 88.3768 130.043 88.7238C130.984 89.0708 131.924 89.0607 132.289 88.8215C132.654 88.5823 141.966 83.246 141.966 83.246" stroke="#02324A" stroke-width="0.43" stroke-miterlimit="10"/>
<path d="M130.945 81.8311C130.945 81.8311 132.539 82.9596 132.801 83.155" stroke="#02324A" stroke-width="0.43" stroke-miterlimit="10"/>
<path d="M132.407 82.2017C132.407 82.2017 134.442 83.2831 134.392 83.8255" stroke="#02324A" stroke-width="0.43" stroke-miterlimit="10"/>
<path d="M127.361 78.7721L123.446 82.3633L125.327 84.3274L129.503 80.1971L127.361 78.7721Z" fill="#E41910" stroke="#02324A" stroke-width="0.43" stroke-miterlimit="10"/>
<path d="M114.989 81.3763C114.989 81.3763 109.871 85.1157 109.925 85.4189C109.979 85.7221 111.388 88.114 111.388 88.114C111.388 88.114 116.394 83.5863 116.555 83.3976C116.716 83.2089 116.973 83.1517 116.609 82.7238C116.244 82.296 116.086 80.7867 114.989 81.3763Z" fill="#E41910" stroke="#02324A" stroke-width="0.43" stroke-miterlimit="10"/>
<path d="M120.471 89.1012L120.828 80.0928" stroke="#02324A" stroke-width="0.43" stroke-miterlimit="10"/>
<path d="M257.29 87.73L263.727 120.954L254.68 143.893C254.68 143.893 252.534 145.772 250.954 144.519C249.373 143.266 248.808 133.112 248.808 133.112L257.29 87.73Z" fill="#007CFF" stroke="#02324A" stroke-width="0.65" stroke-linecap="round" stroke-linejoin="round"/>
<path d="M259.586 105.41L253.732 112.431" stroke="#02324A" stroke-width="0.65" stroke-linecap="round" stroke-linejoin="round"/>
<path d="M258.789 95.886L254.53 107.293" stroke="#02324A" stroke-width="0.65" stroke-linecap="round" stroke-linejoin="round"/>
<path d="M233.653 33.9492C233.653 33.9492 231.833 29.7077 223.376 29.7852C214.919 29.8627 204.659 42.3882 204.116 45.5213C203.572 48.6543 205.503 49.3045 205.503 49.3045L204.992 83.7311C204.992 83.7311 219.135 79.5873 222.822 79.9242C226.509 80.2611 241.17 87.5413 241.17 87.5413C241.17 87.5413 243.287 57.8244 243.831 52.7307C244.374 47.6369 244.667 39.2551 240.587 35.9806C236.507 32.706 233.653 33.9492 233.653 33.9492Z" fill="#02324A" stroke="#02324A" stroke-width="0.65" stroke-linecap="round" stroke-linejoin="round"/>
<path d="M215.462 79.1729L211.611 82.0264L213.124 104.45H236.378L234.587 80.7294L227.71 78.5261L215.462 79.1729Z" fill="white" stroke="#02324A" stroke-width="0.65" stroke-linecap="round" stroke-linejoin="round"/>
<path d="M213.653 85.9444L213.885 72.4487L228.79 72.2297L230.986 86.7058" fill="white"/>
<path d="M213.653 85.9444L213.885 72.4487L228.79 72.2297L230.986 86.7058" stroke="#02324A" stroke-width="0.65" stroke-linecap="round" stroke-linejoin="round"/>
<path d="M210.402 49.3281C210.402 49.3281 208.786 55.9176 208.636 59.7346C208.486 63.5515 210.12 67.8772 211.618 70.1579C213.117 72.4386 218.531 77.2325 222.006 76.9192C225.482 76.6059 232.842 72.2028 235.12 68.9249C237.397 65.647 237.751 62.7194 238.063 60.4555C238.374 58.1916 238.367 48.5836 238.367 48.5836C238.367 48.5836 233.764 44.7498 231.683 42.0311C231.683 42.0311 220.608 49.2372 210.402 49.3281Z" fill="white" stroke="#02324A" stroke-width="0.65" stroke-linecap="round" stroke-linejoin="round"/>
<path d="M238.395 56.4836C238.395 56.4836 239.783 55.0148 241.095 56.1467C242.407 57.2787 241.141 59.5695 240.094 61.1428C239.552 62.0271 238.722 62.7231 237.726 63.1271C237.726 63.1271 238.277 59.8188 238.256 58.7475C238.253 57.9909 238.3 57.2349 238.395 56.4836Z" fill="white" stroke="#02324A" stroke-width="0.65" stroke-linecap="round" stroke-linejoin="round"/>
<path d="M209.194 54.7419C209.194 54.7419 208.479 52.5622 206.333 53.7784C204.187 54.9946 205.543 58.387 206.544 59.391C207.099 59.9749 207.841 60.3723 208.657 60.5229C208.61 59.8251 208.61 59.1252 208.657 58.4275C208.732 57.7368 209.194 54.7419 209.194 54.7419Z" fill="white" stroke="#02324A" stroke-width="0.65" stroke-linecap="round" stroke-linejoin="round"/>
<path d="M238.027 103.803H212.298V140.874H238.027V103.803Z" fill="#CCCCCC" stroke="#02324A" stroke-width="0.65" stroke-linecap="round" stroke-linejoin="round"/>
<path d="M238.989 140.874H212.298V181.088H238.989V140.874Z" fill="#02324A" stroke="#02324A" stroke-width="0.65" stroke-linecap="round" stroke-linejoin="round"/>
<path d="M190.048 87.73L183.611 120.954L186.898 144.873C186.898 144.873 194.786 145.776 196.381 144.536C197.976 143.296 198.527 133.129 198.527 133.129L190.048 87.73Z" fill="#007CFF" stroke="#02324A" stroke-width="0.65" stroke-linecap="round" stroke-linejoin="round"/>
<path d="M187.752 105.41L193.606 112.431" stroke="#02324A" stroke-width="0.65" stroke-linecap="round" stroke-linejoin="round"/>
<path d="M192.322 124.491C194.014 125.326 195.403 126.616 196.313 128.197" stroke="#02324A" stroke-width="0.65" stroke-linecap="round" stroke-linejoin="round"/>
<path d="M189.362 122.733C189.362 122.733 193.224 123.036 195.927 124.734" stroke="#02324A" stroke-width="0.65" stroke-linecap="round" stroke-linejoin="round"/>
<path d="M188.55 95.886L192.809 107.293" stroke="#02324A" stroke-width="0.65" stroke-linecap="round" stroke-linejoin="round"/>
<path d="M187.47 181.088H218.223C218.223 176.682 218.062 132.408 217.537 124.282C216.986 115.725 213.685 80.0792 213.685 80.0792C213.685 80.0792 190.295 87.0797 190.019 87.5986C189.744 88.1174 196.9 135.817 196.9 135.817L187.47 181.088Z" fill="#007CFF" stroke="#02324A" stroke-width="0.65" stroke-linecap="round" stroke-linejoin="round"/>
<path d="M259.804 181.088L250.41 135.945C250.41 135.945 257.562 88.2421 257.29 87.7266C257.019 87.2112 233.625 80.2073 233.625 80.2073C233.625 80.2073 230.324 115.853 229.773 124.407C229.255 132.462 229.101 176.015 229.087 181.085L259.804 181.088Z" fill="#007CFF" stroke="#02324A" stroke-width="0.65" stroke-linecap="round" stroke-linejoin="round"/>
<path d="M265.408 141.133L266.234 126.098L261.692 134.133L265.408 141.133Z" fill="#02324A" stroke="#02324A" stroke-width="0.65" stroke-linecap="round" stroke-linejoin="round"/>
<path d="M257.827 121.429L267.596 106.269C267.596 106.269 269.796 97.0651 270.897 96.1623C271.998 95.2594 277.913 90.8462 277.913 90.8462C277.913 90.8462 280.802 87.2179 281.768 88.2521C282.733 89.2864 281.493 89.9366 281.217 90.8462C280.942 91.7558 277.091 96.6777 277.091 96.6777L288.648 91.493C288.648 91.493 283.878 100.559 280.162 103.409C276.447 106.259 272.41 108.735 272.41 108.735L262.229 138.287L257.827 121.429Z" fill="white" stroke="#02324A" stroke-width="0.65" stroke-linecap="round" stroke-linejoin="round"/>
<path d="M269.649 106.673C269.649 106.673 270.89 103.163 271.905 102.523C272.921 101.883 277.33 100.286 277.33 100.286" stroke="#02324A" stroke-width="0.65" stroke-linecap="round" stroke-linejoin="round"/>
<path d="M287.486 95.6367C287.486 95.6367 289.492 93.8815 289.564 92.4632C289.635 91.0449 291.069 83.8894 289.349 84.7687C287.629 85.648 287.486 95.6367 287.486 95.6367Z" fill="white" stroke="#02324A" stroke-width="0.65" stroke-linecap="round" stroke-linejoin="round"/>
<path d="M285.265 98.406C285.265 98.406 287.125 96.8024 287.193 95.5087C287.261 94.2151 288.587 87.6795 286.992 88.4813C285.398 89.283 285.265 98.406 285.265 98.406Z" fill="white" stroke="#02324A" stroke-width="0.65" stroke-linecap="round" stroke-linejoin="round"/>
<path d="M283.323 100.835C283.323 100.835 285.183 99.2347 285.251 97.9377C285.319 96.6407 286.646 90.1118 285.051 90.9102C283.456 91.7086 283.323 100.835 283.323 100.835Z" fill="white" stroke="#02324A" stroke-width="0.65" stroke-linecap="round" stroke-linejoin="round"/>
<path d="M280.177 103.402C280.177 103.402 283.077 101.835 283.138 100.734C283.198 99.6321 284.457 94.0668 282.948 94.7506C281.439 95.4345 280.177 103.402 280.177 103.402Z" fill="white" stroke="#02324A" stroke-width="0.65" stroke-linecap="round" stroke-linejoin="round"/>
<path d="M259.218 118.707L265.408 141.133L255.088 146.578C255.088 146.578 252.474 138.799 252.198 132.448C251.923 126.098 253.164 123.635 253.164 123.635L259.218 118.707Z" fill="#007CFF" stroke="#02324A" stroke-width="0.65" stroke-linecap="round" stroke-linejoin="round"/>
<path d="M177.893 141.133L177.067 126.098L181.609 134.133L177.893 141.133Z" fill="#02324A" stroke="#02324A" stroke-width="0.65" stroke-linecap="round" stroke-linejoin="round"/>
<path d="M185.46 121.429L175.694 106.269C175.694 106.269 173.491 97.0652 172.39 96.1623C171.289 95.2594 164.598 91.0045 164.598 91.0045C164.598 91.0045 162.628 86.8305 161.666 87.8681C160.704 88.9057 161.844 91.0686 162.545 92.1095C163.082 92.9046 166.2 96.6777 166.2 96.6777L154.642 91.493C154.642 91.493 159.409 100.559 163.125 103.409C166.84 106.259 170.877 108.735 170.877 108.735L181.058 138.287L185.46 121.429Z" fill="white" stroke="#02324A" stroke-width="0.65" stroke-linecap="round" stroke-linejoin="round"/>
<path d="M156.27 94.3128C156.27 94.3128 154.449 92.3858 154.521 90.9675C154.592 89.5492 153.888 82.2994 155.511 83.3269C157.135 84.3544 156.27 94.3128 156.27 94.3128Z" fill="white" stroke="#02324A" stroke-width="0.65" stroke-linecap="round" stroke-linejoin="round"/>
<path d="M158.211 97.2673C158.211 97.2673 156.523 95.5054 156.588 94.2117C156.652 92.9181 155.991 86.2949 157.496 87.2348C159.002 88.1747 158.211 97.2673 158.211 97.2673Z" fill="white" stroke="#02324A" stroke-width="0.65" stroke-linecap="round" stroke-linejoin="round"/>
<path d="M159.899 99.8613C159.899 99.8613 158.211 98.0993 158.276 96.8057C158.34 95.512 157.678 88.8855 159.184 89.8287C160.689 90.772 159.899 99.8613 159.899 99.8613Z" fill="white" stroke="#02324A" stroke-width="0.65" stroke-linecap="round" stroke-linejoin="round"/>
<path d="M160.099 99.9388C160.099 99.9388 159.806 89.9838 160.979 91.365C162.152 92.7463 162.152 99.3863 162.152 99.3863C162.152 99.3863 167.158 100.124 168.124 101.044C168.696 101.575 169.16 102.201 169.493 102.89" fill="white"/>
<path d="M160.099 99.9388C160.099 99.9388 159.806 89.9838 160.979 91.365C162.152 92.7463 162.152 99.3863 162.152 99.3863C162.152 99.3863 167.158 100.124 168.124 101.044C168.696 101.575 169.16 102.201 169.493 102.89" stroke="#02324A" stroke-width="0.65" stroke-linecap="round" stroke-linejoin="round"/>
<path d="M184.087 118.707L177.893 141.133L188.214 146.578C188.214 146.578 192.24 139.274 192.505 132.923C192.769 126.573 191.732 124.673 191.732 124.673L184.087 118.707Z" fill="#007CFF" stroke="#02324A" stroke-width="0.65" stroke-linecap="round" stroke-linejoin="round"/>
<path d="M229.72 77.903L233.171 116.645C233.171 116.645 244.152 107.63 244.467 100.535C244.782 93.4402 240.534 70.2321 240.534 70.2321" fill="#02324A"/>
<path d="M229.72 77.903L233.171 116.645C233.171 116.645 244.152 107.63 244.467 100.535C244.782 93.4402 240.534 70.2321 240.534 70.2321" stroke="#02324A" stroke-width="0.65" stroke-linecap="round" stroke-linejoin="round"/>
<path d="M199.707 113.835V123.086L205.382 119.882L211.182 123.086V115.223V113.67" fill="#E41910"/>
<path d="M199.707 113.835V123.086L205.382 119.882L211.182 123.086V115.223V113.67" stroke="#02324A" stroke-width="0.87" stroke-linecap="round" stroke-linejoin="round"/>
<path d="M215.126 109.065L214.869 112.023C214.831 112.458 214.63 112.866 214.303 113.174C213.975 113.482 213.542 113.671 213.081 113.707L209.941 113.936C209.529 113.964 209.136 114.115 208.822 114.368L206.419 116.285C206.065 116.569 205.615 116.725 205.149 116.725C204.684 116.725 204.234 116.569 203.88 116.285L201.488 114.354C201.176 114.101 200.786 113.947 200.375 113.916L197.236 113.67C196.774 113.634 196.341 113.445 196.014 113.137C195.687 112.828 195.486 112.421 195.448 111.986L195.205 109.028C195.176 108.641 195.015 108.272 194.747 107.977L192.712 105.713C192.41 105.379 192.244 104.954 192.244 104.515C192.244 104.076 192.41 103.652 192.712 103.318L194.761 101.067C195.03 100.772 195.193 100.404 195.226 100.016L195.487 97.0584C195.526 96.6239 195.727 96.2165 196.054 95.9082C196.381 95.5998 196.814 95.4106 197.275 95.374L200.415 95.1482C200.825 95.1177 201.215 94.9669 201.53 94.717L203.934 92.7968C204.288 92.512 204.739 92.3556 205.205 92.3556C205.671 92.3556 206.121 92.512 206.476 92.7968L208.865 94.7305C209.179 94.9824 209.569 95.1355 209.98 95.1685L213.12 95.411C213.581 95.4477 214.014 95.6369 214.341 95.9452C214.668 96.2535 214.869 96.661 214.908 97.0955L215.148 100.053C215.18 100.441 215.34 100.81 215.605 101.108L217.644 103.372C217.946 103.705 218.112 104.129 218.112 104.568C218.112 105.006 217.946 105.43 217.644 105.764L215.591 108.017C215.323 108.312 215.161 108.679 215.126 109.065Z" fill="white" stroke="#02324A" stroke-width="0.87" stroke-linecap="round" stroke-linejoin="round"/>
<path d="M196.338 104.409C196.338 104.88 196.38 105.35 196.463 105.814C196.708 107.186 197.314 108.477 198.226 109.57C198.405 109.786 198.584 109.988 198.791 110.187C198.938 110.328 199.092 110.47 199.249 110.605L199.421 110.75C199.514 110.824 199.607 110.898 199.703 110.969C199.8 111.039 199.932 111.134 200.061 111.214C201.56 112.226 203.359 112.768 205.203 112.764C205.443 112.764 205.682 112.764 205.918 112.737C207.982 112.581 209.921 111.746 211.397 110.379C211.554 110.234 211.704 110.086 211.851 109.928C212.083 109.68 212.299 109.419 212.498 109.146C212.63 108.967 212.755 108.782 212.856 108.593C213.535 107.485 213.935 106.245 214.024 104.968C214.113 103.691 213.889 102.412 213.37 101.229C212.85 100.047 212.049 98.9928 211.028 98.1487C210.007 97.3045 208.794 96.6928 207.482 96.361C206.17 96.0292 204.795 95.986 203.462 96.2349C202.13 96.4838 200.876 97.0181 199.798 97.7964C198.72 98.5747 197.846 99.5762 197.244 100.723C196.642 101.871 196.329 103.133 196.327 104.413L196.338 104.409Z" fill="#CCCCCC" stroke="#02324A" stroke-width="0.87" stroke-linecap="round" stroke-linejoin="round"/>
<path d="M199.274 104.456C199.274 104.772 199.302 105.086 199.36 105.396C199.524 106.312 199.93 107.174 200.54 107.903C200.658 108.044 200.783 108.182 200.915 108.314C201.048 108.445 201.116 108.502 201.223 108.593L201.337 108.691L201.527 108.836C201.602 108.893 201.681 108.947 201.759 109.001C202.762 109.678 203.966 110.041 205.199 110.039C205.36 110.039 205.521 110.039 205.679 110.022C207.058 109.918 208.354 109.36 209.34 108.445C209.447 108.35 209.549 108.25 209.644 108.145C209.801 107.98 209.946 107.805 210.081 107.623C210.166 107.502 210.252 107.377 210.331 107.253C210.785 106.511 211.053 105.681 211.112 104.827C211.172 103.973 211.022 103.117 210.674 102.326C210.327 101.536 209.791 100.83 209.108 100.266C208.425 99.7012 207.613 99.2921 206.736 99.0701C205.858 98.8482 204.938 98.8194 204.047 98.9859C203.155 99.1525 202.317 99.5099 201.595 100.031C200.874 100.551 200.29 101.221 199.887 101.989C199.485 102.756 199.275 103.6 199.274 104.456Z" fill="#999999" stroke="#02324A" stroke-width="0.87" stroke-linecap="round" stroke-linejoin="round"/>
<path d="M207.345 104.409C207.345 104.009 207.219 103.619 206.983 103.286C206.748 102.954 206.413 102.695 206.02 102.542C205.628 102.389 205.197 102.349 204.781 102.427C204.365 102.505 203.982 102.697 203.682 102.98C203.382 103.263 203.178 103.623 203.095 104.015C203.012 104.407 203.055 104.813 203.217 105.183C203.38 105.552 203.655 105.868 204.007 106.09C204.36 106.312 204.775 106.431 205.199 106.431C205.768 106.431 206.314 106.218 206.717 105.839C207.119 105.459 207.345 104.945 207.345 104.409Z" fill="#E41910" stroke="#02324A" stroke-width="0.87" stroke-miterlimit="10"/>
<path d="M110.529 38.9283L107.937 42.5634L112.228 41.4786L111.559 41.2428C111.263 41.1376 111.006 40.9504 110.825 40.7057C110.643 40.461 110.544 40.1703 110.54 39.8716L110.529 38.9283Z" fill="#D0D4D9"/>
<path d="M23.8194 112.548C15.1981 108.874 8.22393 102.46 4.11868 94.4279C0.0134379 86.3962 -0.96107 77.2597 1.36588 68.619C3.69283 59.9784 9.17285 52.3846 16.8459 47.1681C24.5189 41.9516 33.8957 39.4449 43.3335 40.0873" stroke="#007CFF" stroke-width="0.65" stroke-linecap="round" stroke-linejoin="round"/>
<path d="M39.0924 41.6808L43.9057 40.0671L39.3678 38.3827L39.7933 39.0026C39.982 39.2786 40.0778 39.6019 40.0682 39.9301C40.0586 40.2583 39.9441 40.5761 39.7397 40.842L39.0924 41.6775V41.6808Z" fill="#007CFF"/>
<path d="M57.9842 45.7537C59.1963 45.753 60.381 45.4138 61.3884 44.7789C62.3959 44.144 63.1809 43.242 63.6443 42.1868C64.1077 41.1317 64.2285 39.9708 63.9916 38.8509C63.7547 37.731 63.1707 36.7025 62.3134 35.8953C61.456 35.088 60.3639 34.5384 59.1751 34.3159C57.9862 34.0934 56.754 34.2079 55.6343 34.6451C54.5145 35.0822 53.5575 35.8223 52.8842 36.7718C52.2108 37.7213 51.8514 38.8376 51.8514 39.9795C51.8514 40.738 52.0101 41.4892 52.3183 42.1899C52.6266 42.8907 53.0784 43.5274 53.6479 44.0637C54.2174 44.5999 54.8935 45.0252 55.6376 45.3151C56.3816 45.6051 57.179 45.7542 57.9842 45.7537Z" fill="#E41910"/>
<path d="M280.177 82.2825C282.287 82.2825 284.35 81.6929 286.105 80.5883C287.86 79.4837 289.227 77.9136 290.035 76.0767C290.843 74.2399 291.054 72.2186 290.642 70.2685C290.231 68.3185 289.214 66.5273 287.722 65.1214C286.23 63.7155 284.328 62.7581 282.258 62.3702C280.188 61.9823 278.043 62.1814 276.093 62.9422C274.143 63.7031 272.477 64.9916 271.304 66.6447C270.132 68.2979 269.506 70.2415 269.506 72.2297C269.506 74.8959 270.63 77.4528 272.631 79.3381C274.632 81.2233 277.347 82.2825 280.177 82.2825Z" fill="#E41910"/>
<path d="M167.713 50.0625C168.617 50.0632 169.502 49.8111 170.255 49.338C171.007 48.865 171.594 48.1923 171.941 47.405C172.287 46.6177 172.378 45.7513 172.202 44.9152C172.026 44.0792 171.591 43.3111 170.952 42.7082C170.312 42.1052 169.497 41.6945 168.61 41.528C167.722 41.3615 166.803 41.4466 165.967 41.7726C165.131 42.0986 164.416 42.6509 163.914 43.3596C163.411 44.0682 163.143 44.9014 163.143 45.7537C163.143 46.8959 163.624 47.9914 164.481 48.7993C165.338 49.6073 166.5 50.0616 167.713 50.0625Z" fill="#CCCCCC"/>
<path d="M10.5062 131.185C11.2085 131.185 11.895 130.989 12.479 130.621C13.0629 130.254 13.5181 129.731 13.7868 129.12C14.0556 128.509 14.1259 127.836 13.9889 127.187C13.8519 126.538 13.5137 125.942 13.0171 125.474C12.5205 125.006 11.8878 124.688 11.1989 124.559C10.5101 124.43 9.79616 124.496 9.14731 124.749C8.49846 125.002 7.94388 125.431 7.5537 125.981C7.16352 126.531 6.95526 127.178 6.95526 127.84C6.95621 128.727 7.33063 129.577 7.99635 130.204C8.66207 130.831 9.56472 131.184 10.5062 131.185Z" fill="#CCCCCC"/>
<path d="M256.321 35.792C257.945 34.7813 258.825 33.0968 261.625 33.0968C265.694 33.0968 265.694 36.5702 269.749 36.5702C270.251 36.5745 270.751 36.5109 271.233 36.3815C273.89 35.6639 274.38 33.0834 277.874 33.0834C281.932 33.0834 281.932 36.5702 285.998 36.5702C290.064 36.5702 290.061 33.0968 294.116 33.0968C298.171 33.0968 298.182 36.5836 302.244 36.5836C305.562 36.5836 306.177 34.2524 308.502 33.4034" stroke="#CCCCCC" stroke-width="0.43" stroke-linecap="round" stroke-linejoin="round"/>
<path d="M254.437 41.1822C257.591 40.6971 257.898 37.7695 261.625 37.7695C265.111 37.7695 265.601 40.34 268.247 41.0677C268.736 41.1972 269.242 41.2607 269.749 41.2563C273.811 41.2563 273.811 37.7695 277.874 37.7695C281.936 37.7695 281.932 41.2563 285.998 41.2563C290.064 41.2563 290.061 37.7695 294.116 37.7695C298.171 37.7695 298.182 41.2563 302.244 41.2563C306.306 41.2563 306.303 37.7695 310.365 37.7695" stroke="#CCCCCC" stroke-width="0.43" stroke-linecap="round" stroke-linejoin="round"/>
<path d="M253.496 45.9424C257.562 45.9424 257.562 42.4556 261.625 42.4556C264.332 42.4556 265.233 44.0053 266.742 45.0361C267.607 45.6518 268.669 45.9714 269.753 45.9424C273.811 45.9424 273.811 42.4556 277.874 42.4556C281.936 42.4556 281.936 45.9424 286.002 45.9424C290.068 45.9424 290.061 42.4556 294.119 42.4556C298.178 42.4556 298.185 45.9424 302.244 45.9424C306.303 45.9424 306.306 42.4556 310.368 42.4556" stroke="#CCCCCC" stroke-width="0.43" stroke-linecap="round" stroke-linejoin="round"/>
<path d="M253.496 50.6319C257.562 50.6319 257.562 47.1451 261.625 47.1451C263.913 47.1451 264.914 48.2535 266.08 49.2237C266.981 49.9683 267.975 50.6319 269.753 50.6319C273.811 50.6319 273.811 47.1451 277.874 47.1451C281.936 47.1451 281.936 50.6319 286.002 50.6319C290.068 50.6319 290.061 47.1451 294.119 47.1451C298.178 47.1451 298.185 50.6319 302.244 50.6319C306.303 50.6319 306.306 47.1451 310.368 47.1451" stroke="#CCCCCC" stroke-width="0.43" stroke-linecap="round" stroke-linejoin="round"/>
<path d="M253.496 55.3315C257.562 55.3315 257.562 51.8447 261.625 51.8447C264.163 51.8447 265.118 53.1923 266.463 54.2265C267.376 54.9662 268.549 55.36 269.753 55.3315C273.811 55.3315 273.811 51.8447 277.874 51.8447C281.936 51.8447 281.936 55.3315 286.002 55.3315C290.068 55.3315 290.061 51.8447 294.119 51.8447C298.178 51.8447 298.185 55.3315 302.244 55.3315C306.303 55.3315 306.306 51.8447 310.368 51.8447" stroke="#CCCCCC" stroke-width="0.43" stroke-linecap="round" stroke-linejoin="round"/>
<path d="M289.27 35.0374V50.0861" stroke="#CCCCCC" stroke-width="0.65" stroke-linecap="round" stroke-linejoin="round"/>
<path d="M281.285 42.5635H297.259" stroke="#CCCCCC" stroke-width="0.65" stroke-linecap="round" stroke-linejoin="round"/>
<path d="M6.25079 77.1416V83.6705" stroke="#CCCCCC" stroke-width="0.65" stroke-linecap="round" stroke-linejoin="round"/>
<path d="M2.78571 80.406H9.71592" stroke="#CCCCCC" stroke-width="0.65" stroke-linecap="round" stroke-linejoin="round"/>
<path d="M152.794 33.4337V41.3034" stroke="#CCCCCC" stroke-width="0.65" stroke-linecap="round" stroke-linejoin="round"/>
<path d="M148.624 37.3754H156.963" stroke="#CCCCCC" stroke-width="0.65" stroke-linecap="round" stroke-linejoin="round"/>
<path d="M158.794 104.719V110.157" stroke="#CCCCCC" stroke-width="0.65" stroke-linecap="round" stroke-linejoin="round"/>
<path d="M155.912 107.438H161.684" stroke="#CCCCCC" stroke-width="0.65" stroke-linecap="round" stroke-linejoin="round"/>
</g>
<defs>
<clipPath id="clip0_568_14896">
<rect width="310.444" height="170.671" fill="white" transform="translate(0 10.5254)"/>
</clipPath>
</defs>
</svg>
