<svg width="311" height="181" viewBox="0 0 311 181" fill="none" xmlns="http://www.w3.org/2000/svg">
<path d="M138.34 91.1058L142.591 97.9869L153.409 92.7742L150.741 85.3072C154.323 82.8754 157.514 79.913 160.203 76.5217L167.695 79.5943L173.391 69.0332L166.847 64.5601C167.634 62.3628 168.243 60.1059 168.667 57.8111C169.021 55.8588 169.237 53.8842 169.315 51.9018L177.182 49.9832L175.58 38.093L167.652 38.3217C166.439 34.1718 164.6 30.231 162.198 26.6351L167.441 20.4543L159.155 11.7903L152.876 16.6171C149.457 13.9647 145.649 11.8546 141.587 10.3612L142.194 2.28673L130.394 0.143066L128.162 7.74235C123.83 7.59635 119.501 8.11814 115.328 9.28935L111.076 2.41177L100.256 7.61015L102.92 15.0772C99.3415 17.5099 96.1546 20.4722 93.4684 23.8627L85.9768 20.7901L80.2803 31.3512L86.8279 35.8243C85.3593 39.8922 84.5259 44.1615 84.3569 48.4826L76.4897 50.4012L78.0918 62.2914L86.0197 62.0627C87.2333 66.2128 89.0735 70.1536 91.4766 73.7492L86.2307 79.9301L94.5126 88.6048L100.792 83.7637C104.211 86.4197 108.019 88.5345 112.081 90.0339L111.473 98.1084L123.274 100.252L125.516 92.6528C127.614 92.7211 129.714 92.6327 131.799 92.3884M109.517 33.2948C113.757 28.9701 119.473 26.4015 125.525 26.1015C131.576 25.8016 137.519 27.7923 142.166 31.6765C146.814 35.5608 149.824 41.0529 150.598 47.0571C151.371 53.0613 149.85 59.136 146.339 64.0693C142.827 69.0026 137.583 72.4316 131.652 73.6723C125.722 74.9129 119.541 73.8739 114.343 70.7626C109.146 67.6513 105.313 62.6964 103.611 56.8866C101.908 51.0768 102.461 44.8393 105.158 39.4185" stroke="#B3B3B3" stroke-width="0.65" stroke-miterlimit="10"/>
<path d="M54.0687 88.6939C50.6583 90.2466 46.7977 90.5015 43.2124 89.4105C39.6272 88.3195 36.5642 85.9579 34.5991 82.7694C32.634 79.581 31.902 75.7852 32.5409 72.0955C33.1797 68.4058 35.1452 65.0763 38.0682 62.7326C40.9911 60.3889 44.6701 59.1925 48.4138 59.3681C52.1575 59.5438 55.7081 61.0795 58.3983 63.6865C61.0886 66.2936 62.7332 69.7926 63.023 73.5258C63.3129 77.2591 62.2282 80.9696 59.9726 83.96M21.034 69.8512C20.8109 71.0896 20.6723 72.3418 20.6191 73.599L15.6128 74.8173L16.6319 82.3844L21.6776 82.2415C22.4511 84.8825 23.6219 87.3906 25.1499 89.68L21.8099 93.6101L27.0881 99.13L31.086 96.0503C33.2592 97.7395 35.6799 99.0844 38.2629 100.037L37.8732 105.175L45.3827 106.547L46.8131 101.71C49.568 101.797 52.3201 101.462 54.9734 100.716L57.6804 105.093L64.5677 101.788L62.8691 97.0363C65.1465 95.4929 67.1768 93.6137 68.891 91.4628L73.6649 93.4136L77.291 86.6896L73.125 83.8314C74.0604 81.2427 74.59 78.5251 74.6948 75.7748L79.7012 74.5529L78.6713 67.0001L73.6292 67.1466C72.8565 64.5053 71.6857 61.997 70.1569 59.7081L73.4933 55.778L68.2188 50.2545L64.2208 53.3343C62.0446 51.6473 59.6216 50.3049 57.0367 49.3542L57.4229 44.213L49.9134 42.8446L48.483 47.6786C45.7278 47.5902 42.9754 47.9264 40.3227 48.6754L37.6264 44.3023L30.7534 47.6L32.4484 52.3517C30.1705 53.899 28.1422 55.7845 26.4337 57.9431L21.6669 55.9888L18.0266 62.7092L22.1926 65.5674C21.6903 66.9614 21.3028 68.3941 21.034 69.8512Z" stroke="#B3B3B3" stroke-width="0.65" stroke-miterlimit="10"/>
<path d="M111.674 115.604H73.0283V116.915H111.674V115.604Z" fill="#02324A" stroke="#02324A" stroke-width="0.65" stroke-miterlimit="10"/>
<path d="M74.8344 116.504H74.0298V152.925H74.8344V116.504Z" fill="#02324A" stroke="#02324A" stroke-width="0.65" stroke-miterlimit="10"/>
<path d="M83.2915 124.415L109.46 141.71" stroke="#02324A" stroke-width="0.65" stroke-miterlimit="10"/>
<path d="M109.46 124.415L83.2915 141.71" stroke="#02324A" stroke-width="0.65" stroke-miterlimit="10"/>
<path d="M83.5595 116.504H82.7549V152.925H83.5595V116.504Z" fill="#02324A" stroke="#02324A" stroke-width="0.65" stroke-miterlimit="10"/>
<path d="M101.275 116.504H100.47V152.925H101.275V116.504Z" fill="#02324A" stroke="#02324A" stroke-width="0.65" stroke-miterlimit="10"/>
<path d="M109.996 116.504H109.192V152.925H109.996V116.504Z" fill="#02324A" stroke="#02324A" stroke-width="0.65" stroke-miterlimit="10"/>
<path d="M74.4336 124.415L100.602 141.71" stroke="#02324A" stroke-width="0.65" stroke-miterlimit="10"/>
<path d="M100.602 124.415L74.4336 141.71" stroke="#02324A" stroke-width="0.65" stroke-miterlimit="10"/>
<path d="M110.004 141.71H83.563" stroke="#02324A" stroke-width="0.65" stroke-miterlimit="10"/>
<path d="M100.871 141.71H74.4336" stroke="#02324A" stroke-width="0.65" stroke-miterlimit="10"/>
<path d="M32.8701 120.349C32.8701 120.349 33.7784 126.78 33.7784 127.201C33.7784 127.623 33.0346 130.996 33.3636 133.554C33.6926 136.112 35.0979 146.773 35.0979 147.266C35.0979 147.759 34.8226 148.524 34.2218 150.021C33.6211 151.518 33.6747 153.015 33.8642 153.565C34.0538 154.115 34.912 154.111 35.8096 153.565C36.7071 153.018 37.5975 152.268 37.7084 150.671C37.8192 149.074 37.4581 147.527 37.408 146.777C37.3579 146.026 38.3092 135.905 38.7597 133.807C39.2103 131.71 39.1567 126.322 39.1567 126.322L39.8075 120.581L32.8701 120.349Z" fill="white" stroke="#02324A" stroke-width="0.65" stroke-miterlimit="10"/>
<path d="M35.8205 153.565C36.7217 153.015 37.6085 152.268 37.7194 150.671C37.7551 149.97 37.7299 149.267 37.6443 148.57C37.4262 149.21 37.0471 150.228 36.5715 150.356C35.9636 150.51 34.2185 150.031 34.2185 150.031C33.6213 151.528 33.6714 153.025 33.8609 153.576C34.0505 154.126 34.923 154.111 35.8205 153.565Z" fill="#02324A" stroke="#02324A" stroke-width="0.65" stroke-miterlimit="10"/>
<path d="M53.8504 117.798C53.8504 117.798 55.6813 123.896 55.6813 124.125C55.6813 124.354 57.9484 144.397 58.5421 145.465C59.1357 146.534 61.7604 150.728 62.4363 151.032C63.1121 151.335 63.8667 151.796 63.2731 152.103C62.6794 152.411 60.4516 152.639 59.6113 152.561C58.7709 152.482 56.4823 150.349 55.642 150.06C54.8016 149.77 53.4964 149.524 53.7324 148.534C53.9684 147.545 54.8767 146.248 54.9554 145.179C55.034 144.111 52.7633 136.04 51.8479 132.61C50.9324 129.181 50.421 125.576 50.421 125.576L47.5996 120.542L53.8504 117.798Z" fill="white" stroke="#02324A" stroke-width="0.65" stroke-miterlimit="10"/>
<path d="M62.4541 151.032C62.1466 150.896 61.4636 149.992 60.7448 148.934L59.4753 149.735C59.4753 149.735 56.8792 148.592 55.8994 147.373C55.4273 146.794 55.0447 146.355 54.7729 146.051C54.469 146.898 53.929 147.788 53.7609 148.516C53.5321 149.506 54.8337 149.735 55.6705 150.042C56.5073 150.349 58.7995 152.482 59.6398 152.543C60.4802 152.604 62.6937 152.393 63.3016 152.086C63.9095 151.778 63.1407 151.339 62.4541 151.032Z" fill="#02324A" stroke="#02324A" stroke-width="0.65" stroke-miterlimit="10"/>
<path d="M61.4745 79.3154L66.4165 84.1851L79.5903 83.2455L79.7227 85.089C79.7227 85.089 65.8908 89.3192 65.3616 89.3192C64.8323 89.3192 57.9844 82.2773 57.9844 82.2773L61.4745 79.3154Z" fill="white" stroke="#02324A" stroke-width="0.65" stroke-miterlimit="10"/>
<path d="M36.314 91.4879C36.314 91.4879 32.2911 95.3429 30.3958 99.5517C28.8966 102.898 28.6047 106.661 29.5698 110.199C30.2313 112.839 32.1302 121.506 32.1302 121.506C32.1302 121.506 42.1429 121.917 46.5842 121.256C49.3282 120.84 51.9989 120.035 54.5157 118.866C54.5157 118.866 51.7014 107.394 50.7788 104.325C49.8562 101.256 49.0445 98.8764 49.0445 98.8764L49.377 94.6677L36.314 91.4879Z" fill="#02324A" stroke="#02324A" stroke-width="0.65" stroke-miterlimit="10"/>
<path d="M48.8298 69.4403L47.2492 73.0595C47.2492 73.0595 43.6911 74.8459 42.2429 75.6283C40.8852 76.3385 39.8485 77.5378 39.3428 78.9832C38.8171 80.4301 37.6335 88.2724 37.5548 88.4617C37.4761 88.6511 36.2388 90.6983 36.3032 91.4879C36.3676 92.2774 39.2677 96.161 43.2191 96.5541C47.1706 96.9471 48.6689 95.8717 48.8012 95.6752C48.9335 95.4786 51.3866 92.0809 51.9802 91.8166C53.2318 91.0964 54.4412 90.3056 55.6027 89.4478C56.1963 88.9869 57.9735 83.3741 57.9735 83.3741L61.4744 79.3154C61.4744 79.3154 60.7592 78.065 58.1809 76.0999C55.6027 74.1349 48.8298 69.4403 48.8298 69.4403Z" fill="#E1251B" stroke="#02324A" stroke-width="0.65" stroke-miterlimit="10"/>
<path d="M47.2493 73.0596L45.4971 73.9421C45.9798 74.6566 47.446 76.9325 47.775 79.1798C48.1719 81.8808 48.1719 82.3953 48.1719 82.3953L54.6909 82.3274C55.2338 79.3338 55.1277 76.2588 54.3798 73.3097C51.6763 71.3911 48.8299 69.4297 48.8299 69.4297L47.2493 73.0596Z" fill="white" stroke="#02324A" stroke-width="0.65" stroke-miterlimit="10"/>
<path d="M58.4847 61.2301C57.4979 60.4281 56.2765 59.9691 55.0053 59.9225C53.389 59.9225 49.3016 61.0515 47.6817 62.4234C46.0618 63.7954 45.4003 66.5857 45.1786 68.7258C44.9569 70.8659 44.6386 71.2267 45.5362 72.2378C46.4337 73.2489 47.814 73.6026 48.236 73.7241C48.658 73.8456 48.6544 72.5915 48.9512 72.1771C49.248 71.7626 50.2135 70.5122 50.2135 70.5122C50.2135 70.5122 51.7154 69.1438 52.5558 69.1438C53.3961 69.1438 57.5371 68.1327 58.0163 67.7754C58.1543 67.6796 58.323 67.6387 58.4896 67.6605C58.6562 67.6823 58.8087 67.7653 58.9174 67.8933L59.275 70.0942C59.275 70.0942 60.8949 70.2728 61.5565 69.8584C62.218 69.4439 62.7544 67.8362 62.6293 66.8822C62.2931 64.217 60.7662 60.9943 58.4847 61.2301Z" fill="#02324A" stroke="#02324A" stroke-width="0.65" stroke-miterlimit="10"/>
<path d="M49.1586 72.9952C49.4232 74.1135 50.4745 76.3501 50.6069 76.9431C50.7392 77.5362 51.6618 78.1936 52.5844 77.9971C53.507 77.8006 56.2712 76.6144 57.0615 75.6927C57.8518 74.7709 58.313 73.0595 58.4454 72.4021C58.5777 71.7448 59.7649 70.2978 59.8936 69.5082C60.0224 68.7186 59.2356 65.4281 59.2356 65.4281C57.7594 66.2917 56.2183 67.0395 54.6262 67.6647C53.4456 68.0986 52.1663 68.1902 50.9358 67.929C50.9358 67.929 50.9358 68.5864 50.5425 68.5185C50.1491 68.4507 50.5425 68.1255 49.7522 67.804C48.9619 67.4824 48.236 68.3292 48.1716 69.1866C48.1073 70.0441 48.565 71.0266 48.9619 71.291" fill="white"/>
<path d="M49.1586 72.9952C49.4232 74.1135 50.4745 76.3501 50.6069 76.9431C50.7392 77.5362 51.6618 78.1936 52.5844 77.9971C53.507 77.8006 56.2712 76.6144 57.0615 75.6927C57.8518 74.7709 58.313 73.0595 58.4454 72.4021C58.5777 71.7448 59.7649 70.2978 59.8936 69.5082C60.0224 68.7186 59.2356 65.4281 59.2356 65.4281C57.7595 66.2917 56.2183 67.0395 54.6262 67.6647C53.4456 68.0986 52.1663 68.1902 50.9358 67.929C50.9358 67.929 50.9358 68.5864 50.5425 68.5185C50.1491 68.4507 50.5425 68.1255 49.7522 67.804C48.9619 67.4824 48.236 68.3292 48.1716 69.1866C48.1073 70.0441 48.565 71.0266 48.9619 71.291" stroke="#02324A" stroke-width="0.65" stroke-miterlimit="10"/>
<path d="M90.3646 58.2861H64.303C63.9337 58.2861 63.6343 58.5853 63.6343 58.9542V85.7964C63.6343 86.1654 63.9337 86.4646 64.303 86.4646H90.3646C90.7339 86.4646 91.0333 86.1654 91.0333 85.7964V58.9542C91.0333 58.5853 90.7339 58.2861 90.3646 58.2861Z" fill="white" stroke="#02324A" stroke-width="0.65" stroke-miterlimit="10"/>
<path d="M40.5942 84.3173C40.5942 84.3173 48.962 95.1107 49.7523 95.3072C50.5426 95.5037 67.9897 89.8444 68.3258 89.7122C68.662 89.58 73.0676 88.0044 73.2678 87.8722C73.4681 87.7401 75.8353 87.0827 76.032 86.8826C76.2287 86.6825 75.2417 86.5539 75.2417 86.5539H69.842C69.842 86.5539 71.158 85.5035 71.63 85.1069C72.102 84.7104 71.959 83.5921 71.4977 83.9243C71.0364 84.2566 69.7097 85.2391 69.7097 85.2391C69.7097 85.2391 67.6035 85.8322 67.2709 86.3109C66.811 87.1446 66.3933 88.0007 66.0193 88.8762L52.3198 89.9945L46.0619 81.8164L40.5942 84.3173Z" fill="white" stroke="#02324A" stroke-width="0.65" stroke-miterlimit="10"/>
<path d="M40.7266 76.8146C40.7266 76.8146 39.214 77.079 39.2962 80.2373C39.3101 81.9861 39.5091 83.7286 39.8898 85.4357L47.1347 82.6739C47.1347 82.6739 45.9475 79.3834 45.1572 78.5259" fill="#E1251B"/>
<path d="M40.7266 76.8146C40.7266 76.8146 39.214 77.079 39.2962 80.2373C39.3101 81.9861 39.5091 83.7286 39.8898 85.4357L47.1347 82.6739C47.1347 82.6739 45.9475 79.3834 45.1572 78.5259" stroke="#02324A" stroke-width="0.65" stroke-miterlimit="10"/>
<path d="M106.253 87.2506H80.1912C79.8218 87.2506 79.5225 87.5497 79.5225 87.9187V114.761C79.5225 115.13 79.8218 115.429 80.1912 115.429H106.253C106.622 115.429 106.921 115.13 106.921 114.761V87.9187C106.921 87.5497 106.622 87.2506 106.253 87.2506Z" fill="#007CFF" stroke="#02324A" stroke-width="0.43" stroke-miterlimit="10"/>
<path d="M115.303 76.0785C115.303 76.0785 108.931 64.3956 108.67 64.1348C108.409 63.874 106.882 63.6632 106.635 63.7168C106.388 63.7704 103.66 64.1348 103.66 64.1348C103.66 64.1348 100.266 63.7775 100.109 64.1848C99.9516 64.5921 102.355 65.6461 102.877 65.8568C103.399 66.0676 107.365 66.6893 107.365 66.6893L111.28 79.0511L115.303 76.0785Z" fill="#D6D6D6" stroke="#02324A" stroke-width="0.43" stroke-miterlimit="10"/>
<path d="M120.649 94.3212L120.903 102.785C120.903 102.785 121.336 129.695 122.416 132.239C123.496 134.783 125.22 142.911 125.22 142.911C125.22 142.911 124.583 142.911 124.708 143.8C124.79 144.434 124.833 145.073 124.837 145.712C124.837 145.712 123.628 146.984 122.799 147.873C121.969 148.763 120.063 149.145 120.7 149.846C121.336 150.546 123.117 150.671 124.837 150.61C126.557 150.549 128.084 149.145 128.72 148.892C129.357 148.638 131.202 148.445 131.46 147.873C131.717 147.302 131.077 144.883 131.077 144.883C131.077 144.883 131.013 143.039 131.013 142.721C131.013 142.403 130.63 142.007 130.566 141.575C130.501 141.142 129.675 128.713 129.493 127.709C129.31 126.705 129.808 111.47 129.808 111.47C129.808 111.47 133.237 128.655 133.809 130.499C134.381 132.343 137.821 143.222 137.821 143.222C137.821 143.222 137.313 144.293 137.503 144.686C137.693 145.079 138.712 146.719 138.712 146.719C139.211 147.714 139.657 148.733 140.049 149.774C140.432 150.921 141.837 153.59 142.978 152.764C144.119 151.939 144.633 150.156 144.38 149.138C144.126 148.12 142.534 145.387 142.47 145.208C142.406 145.029 142.152 143.422 142.023 142.282C141.894 141.142 141.833 141.71 141.705 140.628C141.576 139.545 140.632 126.187 140.632 126.187L139.684 102.896C139.986 101.387 140.03 99.8386 139.813 98.3155C139.6 97.0043 139.303 95.7083 138.923 94.4355L120.649 94.3212Z" fill="#02324A" stroke="#02324A" stroke-width="0.43" stroke-miterlimit="10"/>
<path d="M130.337 67.4717C130.337 67.4717 124.179 67.0537 123.289 67.2109C122.398 67.3681 120.939 68.8794 120.939 68.8794L116.973 77.1218L115.615 75.7677L111.177 80.2015C111.524 81.37 112.118 82.4507 112.918 83.3705C114.17 84.7282 115.268 85.9251 115.632 85.7178C115.997 85.5106 120.485 82.0629 120.485 82.0629V91.8844C120.485 91.8844 119.545 94.0745 119.806 94.4926C120.067 94.9106 120.903 95.2071 120.903 95.2071C120.903 95.2071 127.637 96.9935 131.971 96.6362C136.305 96.2789 139.645 95.3321 139.802 94.9642C139.96 94.5962 139.488 92.2024 139.488 92.0452C139.488 91.888 141.315 80.1515 141.315 80.1515C141.437 80.2765 144.383 73.7776 142.359 70.605C141.258 68.8758 136.773 68.4614 136.773 68.4614L130.337 67.4717Z" fill="#E1251B" stroke="#02324A" stroke-width="0.43" stroke-miterlimit="10"/>
<path d="M127.809 70.305L128.041 73.2097L124.515 89.6694L126.31 93.1386L129.482 89.43L129.125 73.474L131.395 71.2625L129.421 68.8723L127.809 70.305Z" fill="#02324A" stroke="#02324A" stroke-width="0.43" stroke-miterlimit="10"/>
<path d="M116.973 77.1218L119.251 79.8085" stroke="#02324A" stroke-width="0.43" stroke-miterlimit="10"/>
<path d="M118.722 78.3759C118.722 78.3759 119.977 79.805 119.977 80.0479" stroke="#02324A" stroke-width="0.43" stroke-miterlimit="10"/>
<path d="M126.997 69.0366L126.371 71.3839L128.302 70.8123L126.997 69.0366Z" fill="#E1251B" stroke="#02324A" stroke-width="0.43" stroke-miterlimit="10"/>
<path d="M130.233 70.4979L131.903 74.0457L136.759 68.465L136.291 66.743L135.507 66.325L129.292 66.9502L126.997 69.0367L129.031 71.5948L130.233 70.4979Z" fill="#E1251B" stroke="#02324A" stroke-width="0.43" stroke-miterlimit="10"/>
<path d="M131.381 50.376C131.381 50.376 129.554 51.5264 128.77 52.6733C127.987 53.8202 128.055 55.1242 127.937 55.6994C127.819 56.2746 126.528 59.09 126.421 59.9224C126.314 60.7549 126.736 64.3062 127.258 65.1387C127.78 65.9711 129.346 66.1319 129.346 66.1319C129.346 66.1319 128.824 71.609 129.032 71.609C129.239 71.609 134.828 67.9576 135.193 67.3824C135.558 66.8072 136.03 64.8279 136.133 64.6706C136.237 64.5134 138.114 63.6989 138.901 62.9486C139.232 62.6408 139.482 62.2558 139.627 61.8281C139.772 61.4003 139.809 60.9432 139.734 60.4977C139.734 60.4977 141.04 57.6787 140.414 54.8098C139.788 51.9409 138.39 51.1442 136.03 50.3117C133.67 49.4792 132.582 50.0509 131.381 50.376Z" fill="#D7DEE2" stroke="#02324A" stroke-width="0.43" stroke-miterlimit="10"/>
<path d="M140.414 54.7956C139.788 51.9374 138.379 51.1442 136.029 50.3118C133.68 49.4793 132.582 50.051 131.381 50.3618C131.381 50.3618 131.07 50.5583 130.666 50.8691C131.213 50.8191 133.144 50.7155 134.739 51.5122C136.616 52.4483 137.714 54.692 137.242 55.2136C136.77 55.7352 136.198 56.3104 136.459 56.6749C136.808 57.3826 137.05 58.139 137.174 58.9186C137.12 59.0758 136.13 60.5871 136.287 60.7943C136.444 61.0015 137.174 61.3159 137.331 61.0551C137.488 60.7943 137.8 60.119 138.583 60.119C138.997 60.0912 139.406 60.2186 139.731 60.4763C139.731 60.4763 141.039 57.6645 140.414 54.7956Z" fill="#02324A" stroke="#02324A" stroke-width="0.43" stroke-miterlimit="10"/>
<path d="M129.346 66.1177C129.749 66.1267 130.152 66.0908 130.548 66.0105C130.755 65.9069 132.271 65.4388 132.271 65.4388C132.271 65.4388 130.809 67.0537 130.337 67.4717C129.972 67.7685 129.569 68.0148 129.139 68.2042L129.346 66.1177Z" fill="#02324A" stroke="#02324A" stroke-width="0.43" stroke-miterlimit="10"/>
<path d="M120.858 37.8041L94.85 36.1328C94.4814 36.1092 94.1634 36.3885 94.1397 36.7567L92.4153 63.5436C92.3916 63.9118 92.6712 64.2295 93.0397 64.2532L119.048 65.9244C119.416 65.9481 119.734 65.6688 119.758 65.3006L121.482 38.5137C121.506 38.1455 121.226 37.8278 120.858 37.8041Z" fill="#02324A" stroke="#02324A" stroke-width="0.43" stroke-miterlimit="10"/>
<path d="M127.451 72.9417L119.08 63.9276C118.689 63.2989 118.258 62.6962 117.789 62.1233C117.481 61.8589 116.305 61.766 116.065 61.9232C115.825 62.0804 113.962 61.6803 113.637 61.6267C113.538 61.6117 113.437 61.6284 113.348 61.6744C113.26 61.7204 113.188 61.7934 113.143 61.8828C113.099 61.9722 113.084 62.0734 113.101 62.1718C113.117 62.2703 113.165 62.3609 113.236 62.4306C113.371 62.6123 113.544 62.7613 113.744 62.8665C113.944 62.9717 114.166 63.0303 114.391 63.0379C114.811 63.0557 115.227 63.1131 115.636 63.2094C115.636 63.2094 113.801 64.2813 113.455 64.4528C113.108 64.6242 109.339 65.1673 109.028 65.5246C108.716 65.8819 109.489 66.0855 109.804 66.0855C110.191 66.1501 110.567 66.2705 110.919 66.4428C111.091 66.5214 112.167 67.3002 113.154 67.1966C114.141 67.093 117.481 66.8215 117.481 66.8215L124.519 76.4215L127.451 72.9417Z" fill="#D6D6D6" stroke="#02324A" stroke-width="0.43" stroke-miterlimit="10"/>
<path d="M138.848 69.7155C138.209 70.0609 137.67 70.564 137.281 71.1767C136.813 72.0628 130.945 75.6212 130.945 75.6212L128.041 73.2096L124.647 76.9146C124.647 76.9146 129.103 82.5631 130.044 82.9311C130.984 83.2991 131.925 83.2884 132.289 83.0347C132.654 82.7811 141.966 77.1218 141.966 77.1218" fill="#E1251B"/>
<path d="M138.848 69.7155C138.209 70.0609 137.67 70.564 137.281 71.1767C136.813 72.0628 130.945 75.6212 130.945 75.6212L128.041 73.2096L124.647 76.9146C124.647 76.9146 129.103 82.5631 130.044 82.9311C130.984 83.2991 131.925 83.2884 132.289 83.0347C132.654 82.7811 141.966 77.1218 141.966 77.1218" stroke="#02324A" stroke-width="0.43" stroke-miterlimit="10"/>
<path d="M130.944 75.6212C130.944 75.6212 132.539 76.8181 132.8 77.0253" stroke="#02324A" stroke-width="0.43" stroke-miterlimit="10"/>
<path d="M132.407 76.0143C132.407 76.0143 134.442 77.1611 134.392 77.7364" stroke="#02324A" stroke-width="0.43" stroke-miterlimit="10"/>
<path d="M127.361 72.3772L123.446 76.1858L125.327 78.2687L129.503 73.8885L127.361 72.3772Z" fill="#E1251B" stroke="#02324A" stroke-width="0.43" stroke-miterlimit="10"/>
<path d="M114.989 75.139C114.989 75.139 109.872 79.1047 109.925 79.4263C109.979 79.7478 111.388 82.2845 111.388 82.2845C111.388 82.2845 116.394 77.4827 116.555 77.2826C116.716 77.0825 116.973 77.0218 116.609 76.5681C116.244 76.1143 116.087 74.5137 114.989 75.139Z" fill="#E1251B" stroke="#02324A" stroke-width="0.43" stroke-miterlimit="10"/>
<path d="M120.471 83.3313L120.828 73.7777" stroke="#02324A" stroke-width="0.43" stroke-miterlimit="10"/>
<path d="M257.29 81.8772L263.727 117.112L254.68 141.439C254.68 141.439 252.534 143.432 250.954 142.103C249.373 140.774 248.808 130.006 248.808 130.006L257.29 81.8772Z" fill="#007CFF" stroke="#02324A" stroke-width="0.65" stroke-linecap="round" stroke-linejoin="round"/>
<path d="M259.586 100.627L253.732 108.073" stroke="#02324A" stroke-width="0.65" stroke-linecap="round" stroke-linejoin="round"/>
<path d="M258.789 90.5269L254.53 102.624" stroke="#02324A" stroke-width="0.65" stroke-linecap="round" stroke-linejoin="round"/>
<path d="M233.653 24.8415C233.653 24.8415 231.833 20.3434 223.376 20.4256C214.919 20.5077 204.66 33.7913 204.116 37.114C203.572 40.4366 205.503 41.1262 205.503 41.1262L204.992 77.6363C204.992 77.6363 219.135 73.2418 222.822 73.5991C226.509 73.9563 241.17 81.6771 241.17 81.6771C241.17 81.6771 243.287 50.1617 243.831 44.7597C244.374 39.3577 244.667 30.4686 240.587 26.9959C236.507 23.5231 233.653 24.8415 233.653 24.8415Z" fill="#02324A" stroke="#02324A" stroke-width="0.65" stroke-linecap="round" stroke-linejoin="round"/>
<path d="M215.463 72.8023L211.611 75.8284L213.124 99.6088H236.378L234.587 74.4529L227.71 72.1163L215.463 72.8023Z" fill="white" stroke="#02324A" stroke-width="0.65" stroke-linecap="round" stroke-linejoin="round"/>
<path d="M213.653 79.9836L213.885 65.6711L228.79 65.4388L230.986 80.791" fill="white"/>
<path d="M213.653 79.9836L213.885 65.6711L228.79 65.4388L230.986 80.791" stroke="#02324A" stroke-width="0.65" stroke-linecap="round" stroke-linejoin="round"/>
<path d="M210.403 41.1512C210.403 41.1512 208.786 48.1396 208.636 52.1875C208.486 56.2354 210.12 60.8229 211.618 63.2416C213.117 65.6604 218.531 70.7445 222.007 70.4122C225.482 70.0799 232.842 65.4103 235.12 61.934C237.398 58.4577 237.752 55.353 238.063 52.9521C238.374 50.5512 238.367 40.3616 238.367 40.3616C238.367 40.3616 233.764 36.2958 231.683 33.4126C231.683 33.4126 220.608 41.0548 210.403 41.1512Z" fill="white" stroke="#02324A" stroke-width="0.65" stroke-linecap="round" stroke-linejoin="round"/>
<path d="M238.395 48.7398C238.395 48.7398 239.783 47.1821 241.095 48.3825C242.408 49.583 241.142 52.0124 240.094 53.6809C239.552 54.6188 238.722 55.3569 237.727 55.7853C237.727 55.7853 238.277 52.2768 238.256 51.1407C238.254 50.3383 238.3 49.5365 238.395 48.7398Z" fill="white" stroke="#02324A" stroke-width="0.65" stroke-linecap="round" stroke-linejoin="round"/>
<path d="M209.194 46.8926C209.194 46.8926 208.479 44.581 206.333 45.8708C204.187 47.1606 205.543 50.7584 206.544 51.823C207.099 52.4423 207.841 52.8638 208.657 53.0235C208.61 52.2835 208.61 51.5412 208.657 50.8012C208.732 50.0688 209.194 46.8926 209.194 46.8926Z" fill="white" stroke="#02324A" stroke-width="0.65" stroke-linecap="round" stroke-linejoin="round"/>
<path d="M238.027 98.9229H212.298V138.238H238.027V98.9229Z" fill="#CCCCCC" stroke="#02324A" stroke-width="0.65" stroke-linecap="round" stroke-linejoin="round"/>
<path d="M238.989 138.238H212.298V180.886H238.989V138.238Z" fill="#02324A" stroke="#02324A" stroke-width="0.65" stroke-linecap="round" stroke-linejoin="round"/>
<path d="M190.048 81.8772L183.611 117.112L186.898 142.478C186.898 142.478 194.786 143.436 196.381 142.121C197.976 140.806 198.527 130.024 198.527 130.024L190.048 81.8772Z" fill="#007CFF" stroke="#02324A" stroke-width="0.65" stroke-linecap="round" stroke-linejoin="round"/>
<path d="M187.752 100.627L193.606 108.073" stroke="#02324A" stroke-width="0.65" stroke-linecap="round" stroke-linejoin="round"/>
<path d="M192.322 120.863C194.013 121.748 195.403 123.117 196.313 124.793" stroke="#02324A" stroke-width="0.65" stroke-linecap="round" stroke-linejoin="round"/>
<path d="M189.361 118.998C189.361 118.998 193.223 119.32 195.927 121.12" stroke="#02324A" stroke-width="0.65" stroke-linecap="round" stroke-linejoin="round"/>
<path d="M188.55 90.5269L192.809 102.624" stroke="#02324A" stroke-width="0.65" stroke-linecap="round" stroke-linejoin="round"/>
<path d="M187.47 180.886H218.223C218.223 176.213 218.062 129.259 217.536 120.642C216.986 111.567 213.685 73.7634 213.685 73.7634C213.685 73.7634 190.295 81.1876 190.019 81.7378C189.744 82.288 196.9 132.875 196.9 132.875L187.47 180.886Z" fill="#007CFF" stroke="#02324A" stroke-width="0.65" stroke-linecap="round" stroke-linejoin="round"/>
<path d="M259.804 180.886L250.41 133.011C250.41 133.011 257.562 82.4202 257.291 81.8736C257.019 81.327 233.625 73.8992 233.625 73.8992C233.625 73.8992 230.324 111.703 229.773 120.774C229.255 129.316 229.101 175.505 229.087 180.882L259.804 180.886Z" fill="#007CFF" stroke="#02324A" stroke-width="0.65" stroke-linecap="round" stroke-linejoin="round"/>
<path d="M265.408 138.513L266.234 122.567L261.692 131.088L265.408 138.513Z" fill="#02324A" stroke="#02324A" stroke-width="0.65" stroke-linecap="round" stroke-linejoin="round"/>
<path d="M257.827 117.616L267.596 101.538C267.596 101.538 269.795 91.7773 270.897 90.8198C271.998 89.8623 277.913 85.182 277.913 85.182C277.913 85.182 280.802 81.3341 281.768 82.431C282.733 83.5278 281.492 84.2173 281.217 85.182C280.942 86.1466 277.09 91.3664 277.09 91.3664L288.648 85.868C288.648 85.868 283.878 95.4823 280.162 98.5048C276.447 101.527 272.409 104.153 272.409 104.153L262.229 135.494L257.827 117.616Z" fill="white" stroke="#02324A" stroke-width="0.65" stroke-linecap="round" stroke-linejoin="round"/>
<path d="M269.649 101.967C269.649 101.967 270.89 98.244 271.905 97.5652C272.921 96.8864 277.33 95.1929 277.33 95.1929" stroke="#02324A" stroke-width="0.65" stroke-linecap="round" stroke-linejoin="round"/>
<path d="M287.486 90.2625C287.486 90.2625 289.492 88.401 289.563 86.8969C289.635 85.3928 291.069 77.8042 289.349 78.7367C287.629 79.6692 287.486 90.2625 287.486 90.2625Z" fill="white" stroke="#02324A" stroke-width="0.65" stroke-linecap="round" stroke-linejoin="round"/>
<path d="M285.265 93.1992C285.265 93.1992 287.125 91.4986 287.193 90.1266C287.261 88.7547 288.587 81.8235 286.992 82.6738C285.397 83.5242 285.265 93.1992 285.265 93.1992Z" fill="white" stroke="#02324A" stroke-width="0.65" stroke-linecap="round" stroke-linejoin="round"/>
<path d="M283.323 95.7752C283.323 95.7752 285.183 94.0782 285.251 92.7027C285.319 91.3271 286.645 84.4031 285.05 85.2499C283.456 86.0966 283.323 95.7752 283.323 95.7752Z" fill="white" stroke="#02324A" stroke-width="0.65" stroke-linecap="round" stroke-linejoin="round"/>
<path d="M280.177 98.4976C280.177 98.4976 283.077 96.8363 283.138 95.668C283.198 94.4997 284.457 88.5975 282.948 89.3228C281.439 90.048 280.177 98.4976 280.177 98.4976Z" fill="white" stroke="#02324A" stroke-width="0.65" stroke-linecap="round" stroke-linejoin="round"/>
<path d="M259.218 114.729L265.408 138.513L255.087 144.286C255.087 144.286 252.473 136.037 252.198 129.302C251.923 122.567 253.164 119.956 253.164 119.956L259.218 114.729Z" fill="#007CFF" stroke="#02324A" stroke-width="0.65" stroke-linecap="round" stroke-linejoin="round"/>
<path d="M177.893 138.513L177.067 122.567L181.609 131.088L177.893 138.513Z" fill="#02324A" stroke="#02324A" stroke-width="0.65" stroke-linecap="round" stroke-linejoin="round"/>
<path d="M185.46 117.616L175.694 101.538C175.694 101.538 173.491 91.7773 172.39 90.8198C171.289 89.8623 164.598 85.3499 164.598 85.3499C164.598 85.3499 162.628 80.9232 161.666 82.0237C160.704 83.1241 161.845 85.4178 162.545 86.5218C163.082 87.3649 166.2 91.3664 166.2 91.3664L154.643 85.868C154.643 85.868 159.409 95.4823 163.125 98.5048C166.84 101.527 170.877 104.153 170.877 104.153L181.058 135.494L185.46 117.616Z" fill="white" stroke="#02324A" stroke-width="0.65" stroke-linecap="round" stroke-linejoin="round"/>
<path d="M156.269 88.8583C156.269 88.8583 154.449 86.8147 154.521 85.3106C154.592 83.8064 153.888 76.1178 155.511 77.2075C157.135 78.2972 156.269 88.8583 156.269 88.8583Z" fill="white" stroke="#02324A" stroke-width="0.65" stroke-linecap="round" stroke-linejoin="round"/>
<path d="M158.211 91.9917C158.211 91.9917 156.523 90.1231 156.588 88.7512C156.652 87.3792 155.99 80.3552 157.496 81.352C159.001 82.3488 158.211 91.9917 158.211 91.9917Z" fill="white" stroke="#02324A" stroke-width="0.65" stroke-linecap="round" stroke-linejoin="round"/>
<path d="M159.899 94.7427C159.899 94.7427 158.211 92.8741 158.276 91.5022C158.34 90.1302 157.678 83.1026 159.184 84.103C160.689 85.1033 159.899 94.7427 159.899 94.7427Z" fill="white" stroke="#02324A" stroke-width="0.65" stroke-linecap="round" stroke-linejoin="round"/>
<path d="M160.099 94.8249C160.099 94.8249 159.806 84.2674 160.979 85.7322C162.152 87.1971 162.152 94.239 162.152 94.239C162.152 94.239 167.158 95.0214 168.124 95.9968C168.696 96.5604 169.16 97.224 169.494 97.9547" fill="white"/>
<path d="M160.099 94.8249C160.099 94.8249 159.806 84.2674 160.979 85.7322C162.152 87.1971 162.152 94.239 162.152 94.239C162.152 94.239 167.158 95.0214 168.124 95.9968C168.696 96.5604 169.16 97.224 169.494 97.9547" stroke="#02324A" stroke-width="0.65" stroke-linecap="round" stroke-linejoin="round"/>
<path d="M184.087 114.729L177.894 138.513L188.214 144.286C188.214 144.286 192.24 136.541 192.505 129.806C192.77 123.071 191.733 121.056 191.733 121.056L184.087 114.729Z" fill="#007CFF" stroke="#02324A" stroke-width="0.65" stroke-linecap="round" stroke-linejoin="round"/>
<path d="M229.72 71.4554L233.171 112.542C233.171 112.542 244.152 102.981 244.467 95.4572C244.782 87.933 240.533 63.3202 240.533 63.3202" fill="#02324A"/>
<path d="M229.72 71.4554L233.171 112.542C233.171 112.542 244.152 102.981 244.467 95.4572C244.782 87.933 240.533 63.3202 240.533 63.3202" stroke="#02324A" stroke-width="0.65" stroke-linecap="round" stroke-linejoin="round"/>
<path d="M199.707 109.563V119.373L205.382 115.976L211.182 119.373V111.034V109.387" fill="#E1251B"/>
<path d="M199.707 109.563V119.373L205.382 115.976L211.182 119.373V111.034V109.387" stroke="#02324A" stroke-width="0.87" stroke-linecap="round" stroke-linejoin="round"/>
<path d="M215.126 104.503L214.869 107.64C214.83 108.101 214.63 108.534 214.302 108.861C213.975 109.188 213.542 109.389 213.081 109.427L209.941 109.67C209.529 109.699 209.136 109.859 208.822 110.127L206.419 112.16C206.065 112.462 205.614 112.627 205.149 112.627C204.684 112.627 204.234 112.462 203.88 112.16L201.487 110.113C201.175 109.844 200.786 109.681 200.375 109.648L197.236 109.387C196.774 109.349 196.341 109.149 196.014 108.822C195.686 108.495 195.486 108.062 195.448 107.601L195.204 104.464C195.175 104.053 195.015 103.662 194.747 103.349L192.712 100.949C192.41 100.594 192.244 100.144 192.244 99.6785C192.244 99.2129 192.41 98.7626 192.712 98.4084L194.761 96.0217C195.03 95.7085 195.193 95.3183 195.226 94.907L195.487 91.7701C195.526 91.3094 195.727 90.8773 196.054 90.5503C196.381 90.2233 196.814 90.0226 197.275 89.9838L200.415 89.7444C200.825 89.712 201.215 89.5521 201.53 89.2871L203.933 87.2506C204.288 86.9486 204.739 86.7827 205.205 86.7827C205.671 86.7827 206.121 86.9486 206.476 87.2506L208.865 89.3014C209.179 89.5685 209.569 89.7309 209.98 89.7658L213.12 90.0231C213.581 90.0619 214.014 90.2626 214.341 90.5896C214.668 90.9166 214.869 91.3487 214.908 91.8094L215.148 94.9463C215.18 95.3576 215.34 95.7485 215.605 96.0646L217.644 98.4655C217.946 98.8192 218.111 99.2689 218.111 99.7338C218.111 100.199 217.946 100.648 217.644 101.002L215.591 103.392C215.323 103.705 215.16 104.094 215.126 104.503Z" fill="white" stroke="#02324A" stroke-width="0.87" stroke-linecap="round" stroke-linejoin="round"/>
<path d="M196.338 99.5659C196.338 100.065 196.38 100.564 196.464 101.056C196.708 102.51 197.314 103.88 198.226 105.039C198.405 105.268 198.584 105.482 198.791 105.693C198.938 105.843 199.092 105.993 199.249 106.136L199.421 106.29C199.514 106.368 199.607 106.447 199.703 106.522C199.8 106.597 199.932 106.697 200.061 106.783C201.56 107.855 203.359 108.43 205.203 108.426C205.443 108.426 205.682 108.426 205.918 108.398C207.982 108.232 209.921 107.347 211.397 105.897C211.554 105.743 211.704 105.586 211.851 105.418C212.083 105.155 212.3 104.878 212.498 104.589C212.63 104.4 212.756 104.203 212.856 104.003C213.535 102.828 213.935 101.512 214.024 100.158C214.113 98.804 213.889 97.4474 213.37 96.1934C212.85 94.9394 212.049 93.8216 211.028 92.9264C210.007 92.0311 208.794 91.3824 207.482 91.0305C206.17 90.6786 204.795 90.6328 203.463 90.8968C202.13 91.1607 200.876 91.7273 199.798 92.5527C198.72 93.3781 197.846 94.4403 197.244 95.657C196.642 96.8737 196.329 98.2123 196.328 99.5695L196.338 99.5659Z" fill="#CCCCCC" stroke="#02324A" stroke-width="0.87" stroke-linecap="round" stroke-linejoin="round"/>
<path d="M199.274 99.6159C199.273 99.95 199.302 100.284 199.36 100.613C199.524 101.584 199.929 102.498 200.54 103.271C200.658 103.421 200.783 103.567 200.915 103.707C201.048 103.846 201.116 103.907 201.223 104.003L201.337 104.107L201.527 104.261C201.602 104.321 201.681 104.378 201.759 104.436C202.762 105.154 203.966 105.538 205.199 105.536C205.36 105.536 205.521 105.536 205.678 105.518C207.058 105.408 208.354 104.816 209.34 103.846C209.447 103.745 209.548 103.639 209.644 103.528C209.8 103.352 209.946 103.167 210.08 102.974C210.166 102.846 210.252 102.713 210.331 102.581C210.785 101.795 211.052 100.915 211.112 100.009C211.171 99.1032 211.022 98.1958 210.674 97.357C210.327 96.5182 209.791 95.7704 209.108 95.1716C208.425 94.5728 207.613 94.1389 206.735 93.9036C205.858 93.6682 204.938 93.6377 204.047 93.8143C203.155 93.9909 202.317 94.3699 201.595 94.9221C200.874 95.4743 200.29 96.1848 199.887 96.9987C199.485 97.8126 199.275 98.7081 199.274 99.6159Z" fill="#999999" stroke="#02324A" stroke-width="0.87" stroke-linecap="round" stroke-linejoin="round"/>
<path d="M207.345 99.5659C207.345 99.1419 207.219 98.7275 206.983 98.375C206.748 98.0224 206.412 97.7477 206.02 97.5854C205.628 97.4232 205.197 97.3807 204.781 97.4634C204.365 97.5461 203.982 97.7503 203.682 98.0501C203.382 98.3499 203.178 98.7319 203.095 99.1477C203.012 99.5635 203.055 99.9945 203.217 100.386C203.379 100.778 203.654 101.113 204.007 101.348C204.36 101.584 204.775 101.71 205.199 101.71C205.768 101.71 206.314 101.484 206.716 101.082C207.119 100.68 207.345 100.134 207.345 99.5659Z" fill="#E1251B" stroke="#02324A" stroke-width="0.87" stroke-miterlimit="10"/>
<path d="M110.53 30.1221L107.937 33.9771L112.228 32.8267L111.559 32.5766C111.263 32.465 111.007 32.2665 110.825 32.007C110.643 31.7475 110.544 31.4392 110.54 31.1224L110.53 30.1221Z" fill="#D0D4D9"/>
<path d="M23.8196 108.198C15.1983 104.301 8.22411 97.4983 4.11887 88.9805C0.013621 80.4627 -0.960887 70.7732 1.36606 61.6096C3.69302 52.446 9.17304 44.3927 16.8461 38.8604C24.5191 33.3282 33.8959 30.6698 43.3336 31.3511" stroke="#007CFF" stroke-width="0.65" stroke-linecap="round" stroke-linejoin="round"/>
<path d="M39.0923 33.041L43.9055 31.3296L39.3676 29.5432L39.7932 30.2006C39.9818 30.4934 40.0777 30.8362 40.0681 31.1842C40.0585 31.5323 39.944 31.8694 39.7395 32.1513L39.0923 33.0374V33.041Z" fill="#007CFF"/>
<path d="M57.9843 37.3605C59.1964 37.3598 60.3811 37 61.3886 36.3267C62.396 35.6534 63.1811 34.6968 63.6444 33.5777C64.1078 32.4587 64.2286 31.2275 63.9917 30.0399C63.7548 28.8522 63.1708 27.7614 62.3135 26.9054C61.4562 26.0493 60.364 25.4664 59.1752 25.2304C57.9863 24.9944 56.7541 25.1159 55.6344 25.5795C54.5146 26.0431 53.5576 26.828 52.8843 27.835C52.2109 28.8419 51.8516 30.0258 51.8516 31.2368C51.8516 32.0412 52.0102 32.8378 52.3185 33.581C52.6267 34.3242 53.0785 34.9995 53.648 35.5682C54.2176 36.1368 54.8937 36.5878 55.6377 36.8954C56.3817 37.2029 57.1791 37.361 57.9843 37.3605Z" fill="#E1251B"/>
<path d="M280.177 76.1C282.287 76.1 284.35 75.4747 286.105 74.3033C287.86 73.1318 289.227 71.4668 290.035 69.5187C290.843 67.5706 291.054 65.427 290.642 63.359C290.23 61.2909 289.214 59.3913 287.722 57.9003C286.23 56.4093 284.328 55.3939 282.258 54.9826C280.188 54.5712 278.043 54.7823 276.093 55.5892C274.143 56.3962 272.477 57.7626 271.304 59.5158C270.132 61.2691 269.506 63.3303 269.506 65.4389C269.506 68.2664 270.63 70.9781 272.631 72.9774C274.632 74.9768 277.347 76.1 280.177 76.1Z" fill="#E1251B"/>
<path d="M167.713 41.93C168.617 41.9307 169.502 41.6633 170.255 41.1617C171.007 40.66 171.594 39.9466 171.941 39.1116C172.287 38.2767 172.379 37.3578 172.202 36.4712C172.026 35.5845 171.591 34.77 170.952 34.1306C170.312 33.4911 169.497 33.0556 168.61 32.879C167.723 32.7024 166.803 32.7926 165.967 33.1384C165.131 33.4841 164.416 34.0698 163.914 34.8214C163.411 35.5729 163.143 36.4565 163.143 37.3605C163.143 38.5718 163.624 39.7335 164.481 40.5904C165.338 41.4472 166.5 41.9291 167.713 41.93Z" fill="#CCCCCC"/>
<path d="M10.506 127.962C11.2083 127.962 11.8949 127.754 12.4788 127.364C13.0627 126.975 13.5179 126.421 13.7866 125.772C14.0554 125.124 14.1257 124.411 13.9887 123.722C13.8517 123.034 13.5135 122.402 13.0169 121.906C12.5203 121.41 11.8876 121.072 11.1988 120.935C10.5099 120.798 9.79597 120.868 9.14713 121.137C8.49828 121.405 7.9437 121.86 7.55352 122.444C7.16334 123.027 6.95508 123.713 6.95508 124.415C6.95602 125.355 7.33044 126.257 7.99617 126.922C8.66189 127.587 9.56453 127.961 10.506 127.962Z" fill="#CCCCCC"/>
<path d="M256.321 26.7958C257.945 25.724 258.824 23.9376 261.624 23.9376C265.694 23.9376 265.694 27.6212 269.749 27.6212C270.251 27.6257 270.751 27.5583 271.233 27.4211C273.89 26.6601 274.38 23.9233 277.874 23.9233C281.932 23.9233 281.932 27.6212 285.998 27.6212C290.064 27.6212 290.06 23.9376 294.116 23.9376C298.171 23.9376 298.182 27.6354 302.244 27.6354C305.562 27.6354 306.177 25.1631 308.502 24.2628" stroke="#CCCCCC" stroke-width="0.43" stroke-linecap="round" stroke-linejoin="round"/>
<path d="M254.437 32.5122C257.591 31.9977 257.899 28.8929 261.625 28.8929C265.111 28.8929 265.601 31.619 268.247 32.3907C268.736 32.528 269.242 32.5954 269.749 32.5908C273.812 32.5908 273.812 28.8929 277.874 28.8929C281.936 28.8929 281.933 32.5908 285.998 32.5908C290.064 32.5908 290.061 28.8929 294.116 28.8929C298.171 28.8929 298.182 32.5908 302.244 32.5908C306.306 32.5908 306.303 28.8929 310.365 28.8929" stroke="#CCCCCC" stroke-width="0.43" stroke-linecap="round" stroke-linejoin="round"/>
<path d="M253.497 37.5605C257.562 37.5605 257.562 33.8627 261.625 33.8627C264.332 33.8627 265.233 35.5061 266.742 36.5994C267.607 37.2523 268.669 37.5913 269.753 37.5605C273.812 37.5605 273.812 33.8627 277.874 33.8627C281.936 33.8627 281.936 37.5605 286.002 37.5605C290.068 37.5605 290.061 33.8627 294.119 33.8627C298.178 33.8627 298.185 37.5605 302.244 37.5605C306.303 37.5605 306.306 33.8627 310.369 33.8627" stroke="#CCCCCC" stroke-width="0.43" stroke-linecap="round" stroke-linejoin="round"/>
<path d="M253.497 42.5339C257.562 42.5339 257.562 38.8361 261.625 38.8361C263.913 38.8361 264.915 40.0115 266.08 41.0405C266.982 41.83 267.976 42.5339 269.753 42.5339C273.812 42.5339 273.812 38.8361 277.874 38.8361C281.936 38.8361 281.936 42.5339 286.002 42.5339C290.068 42.5339 290.061 38.8361 294.119 38.8361C298.178 38.8361 298.185 42.5339 302.244 42.5339C306.303 42.5339 306.306 38.8361 310.369 38.8361" stroke="#CCCCCC" stroke-width="0.43" stroke-linecap="round" stroke-linejoin="round"/>
<path d="M253.497 47.5179C257.562 47.5179 257.562 43.8201 261.625 43.8201C264.164 43.8201 265.118 45.2492 266.463 46.346C267.376 47.1305 268.549 47.5481 269.753 47.5179C273.812 47.5179 273.812 43.8201 277.874 43.8201C281.936 43.8201 281.936 47.5179 286.002 47.5179C290.068 47.5179 290.061 43.8201 294.119 43.8201C298.178 43.8201 298.185 47.5179 302.244 47.5179C306.303 47.5179 306.306 43.8201 310.369 43.8201" stroke="#CCCCCC" stroke-width="0.43" stroke-linecap="round" stroke-linejoin="round"/>
<path d="M289.271 25.9955V41.955" stroke="#CCCCCC" stroke-width="0.65" stroke-linecap="round" stroke-linejoin="round"/>
<path d="M281.285 33.9771H297.259" stroke="#CCCCCC" stroke-width="0.65" stroke-linecap="round" stroke-linejoin="round"/>
<path d="M6.25098 70.6479V77.572" stroke="#CCCCCC" stroke-width="0.65" stroke-linecap="round" stroke-linejoin="round"/>
<path d="M2.78564 74.11H9.71586" stroke="#CCCCCC" stroke-width="0.65" stroke-linecap="round" stroke-linejoin="round"/>
<path d="M152.794 24.2948V32.6408" stroke="#CCCCCC" stroke-width="0.65" stroke-linecap="round" stroke-linejoin="round"/>
<path d="M148.624 28.475H156.963" stroke="#CCCCCC" stroke-width="0.65" stroke-linecap="round" stroke-linejoin="round"/>
<path d="M158.794 99.8947V105.661" stroke="#CCCCCC" stroke-width="0.65" stroke-linecap="round" stroke-linejoin="round"/>
<path d="M155.912 102.778H161.684" stroke="#CCCCCC" stroke-width="0.65" stroke-linecap="round" stroke-linejoin="round"/>
</svg>
