<svg width="52" height="52" viewBox="0 0 52 52" fill="none" xmlns="http://www.w3.org/2000/svg">
<path d="M51 25.9972C51 27.4304 50.8778 28.8358 50.65 30.2023C49.8 35.224 47.45 39.7401 44.0722 43.2675C43.5111 43.8564 42.9167 44.423 42.2944 44.9562C41.7222 45.4451 41.1278 45.9117 40.5167 46.3505C36.4278 49.278 31.4111 51 26 51C25.3222 51 24.6444 50.9722 23.9778 50.9167C16.2722 50.3001 9.55556 46.1894 5.40556 40.179C2.62778 36.1405 1 31.2633 1 25.9972C1 12.1932 12.1944 1 26 1C39.8056 1 51 12.1932 51 25.9972Z" stroke="#E1251B" stroke-width="0.7" stroke-linecap="round" stroke-linejoin="round"/>
<path d="M41.6001 29.4025L45.5556 29.0914V23.1143L41.6501 22.8088C41.2501 20.8423 40.4834 19.0147 39.4279 17.3871L42.0167 14.3597L37.789 10.1324L34.7723 12.7154C33.1612 11.6656 31.3556 10.899 29.4112 10.4823L29.0945 6.43835H23.1167L22.8001 10.4823C20.8834 10.8879 19.1001 11.6433 17.5056 12.671L14.3556 9.97685L10.1279 14.2042L12.8112 17.3427C11.7834 18.9147 11.0334 20.6812 10.6167 22.5699L6.43896 22.8976V28.8747L10.5667 29.1969C10.9556 31.0967 11.689 32.8687 12.6945 34.4575L9.97785 37.6293L14.2056 41.8566L17.3167 39.1958C18.8945 40.2457 20.6723 41.0234 22.5779 41.4567L22.9001 45.5507H28.8779L29.189 41.5567" stroke="#E1251B" stroke-width="0.7" stroke-linecap="round" stroke-linejoin="round"/>
<path d="M26.1226 38.7125C19.3115 38.7125 13.7837 33.1909 13.7837 26.375C13.7837 19.5591 19.3059 14.0375 26.1226 14.0375C32.9392 14.0375 38.4615 19.5591 38.4615 26.375C38.4615 33.1909 32.9392 38.7125 26.1226 38.7125Z" stroke="#E1251B" stroke-width="0.7" stroke-linecap="round" stroke-linejoin="round"/>
<path d="M42.7945 39.5068L36.3223 33.363" stroke="#E1251B" stroke-width="0.7" stroke-linecap="round" stroke-linejoin="round"/>
<path d="M33.3057 36.4238L39.6223 42.7342" stroke="#E1251B" stroke-width="0.7" stroke-linecap="round" stroke-linejoin="round"/>
<path d="M25.5612 24.9752C27.2364 24.9752 28.5945 23.6173 28.5945 21.9422C28.5945 20.2671 27.2364 18.9092 25.5612 18.9092C23.8859 18.9092 22.5278 20.2671 22.5278 21.9422C22.5278 23.6173 23.8859 24.9752 25.5612 24.9752Z" stroke="#E1251B" stroke-width="0.7" stroke-linecap="round" stroke-linejoin="round"/>
<path d="M19.5557 32.2577C19.5557 28.9081 22.2723 26.1862 25.6279 26.1862C28.5501 26.1862 30.9946 28.2526 31.5668 31.0023" stroke="#E1251B" stroke-width="0.7" stroke-linecap="round" stroke-linejoin="round"/>
<path d="M25.8225 26.2139L26.4892 31.5966L25.5614 32.6687L24.6392 31.5966L25.3058 26.2139" stroke="#E1251B" stroke-width="0.7" stroke-linecap="round" stroke-linejoin="round"/>
<path d="M34.7612 37.8962L37.8057 34.7573" stroke="#E1251B" stroke-width="0.7" stroke-linecap="round" stroke-linejoin="round"/>
</svg>
