<svg width="18" height="18" viewBox="0 0 18 18" fill="none" xmlns="http://www.w3.org/2000/svg">
<path d="M12.7435 8.20522L6.98883 5.327C6.82614 5.24559 6.64534 5.20714 6.46361 5.21531C6.28188 5.22347 6.10526 5.27798 5.95053 5.37365C5.7958 5.46932 5.66812 5.60297 5.5796 5.7619C5.49109 5.92083 5.44469 6.09975 5.44482 6.28166V11.7181C5.44469 11.9 5.49109 12.0789 5.5796 12.2379C5.66812 12.3968 5.7958 12.5305 5.95053 12.6261C6.10526 12.7218 6.28188 12.7763 6.46361 12.7845C6.64534 12.7926 6.82614 12.7542 6.98883 12.6728L12.7435 9.79455C12.8909 9.72065 13.0149 9.60718 13.1016 9.46684C13.1882 9.3265 13.2341 9.16482 13.2341 8.99989C13.2341 8.83495 13.1882 8.67327 13.1016 8.53293C13.0149 8.39259 12.8909 8.27912 12.7435 8.20522Z" stroke="#00324B" stroke-width="1.5" stroke-linecap="round" stroke-linejoin="round"/>
<path d="M9 17C13.4183 17 17 13.4183 17 9C17 4.58172 13.4183 1 9 1C4.58172 1 1 4.58172 1 9C1 13.4183 4.58172 17 9 17Z" stroke="#00324B" stroke-width="1.5"/>
</svg>
