<svg width="16" height="16" viewBox="0 0 16 16" fill="none" xmlns="http://www.w3.org/2000/svg">
<path d="M5.35268 8.17141L12.9612 9.74154C14.6572 10.0915 14.6344 12.5222 12.9324 12.841L5.29635 14.2673C3.38463 14.6245 1.61914 13.1575 1.61914 11.2134C1.61914 9.24533 3.42658 7.77229 5.35388 8.17021L5.35268 8.17141Z" stroke="white" stroke-width="1.5" stroke-linecap="round" stroke-linejoin="round"/>
<path d="M4.77328 12.3158C5.38157 12.3158 5.87468 11.8227 5.87468 11.2144C5.87468 10.6062 5.38157 10.113 4.77328 10.113C4.16499 10.113 3.67188 10.6062 3.67188 11.2144C3.67188 11.8227 4.16499 12.3158 4.77328 12.3158Z" stroke="white" stroke-width="1.5" stroke-linecap="round" stroke-linejoin="round"/>
<path d="M6.30598 8.36783L5.38086 6.15015" stroke="white" stroke-width="1.5" stroke-linecap="round" stroke-linejoin="round"/>
<path d="M13.1578 9.79532L11.6909 3.52206L14.3805 2.49729L14.0497 1.26636" stroke="white" stroke-width="1.5" stroke-linecap="round" stroke-linejoin="round"/>
<path d="M12.0889 12.999L13.7189 14.852" stroke="white" stroke-width="1.5" stroke-linecap="round" stroke-linejoin="round"/>
<path d="M2.98548 13.9255L2.19922 14.6818" stroke="white" stroke-width="1.5" stroke-linecap="round" stroke-linejoin="round"/>
<path d="M3.79199 5.86743H6.56548" stroke="white" stroke-width="1.5" stroke-linecap="round" stroke-linejoin="round"/>
</svg>
