<svg width="19" height="16" viewBox="0 0 19 16" fill="none" xmlns="http://www.w3.org/2000/svg">
<path d="M17.5467 0H1.12C0.822958 0 0.538081 0.120408 0.32804 0.334735C0.118 0.549062 0 0.839753 0 1.14286V14.8571C0 15.1602 0.118 15.4509 0.32804 15.6653C0.538081 15.8796 0.822958 16 1.12 16H2.36973C2.44036 15.9999 2.50951 15.9793 2.56915 15.9407C2.62879 15.9021 2.67647 15.8471 2.70667 15.7819C3.0999 14.9342 3.72093 14.2179 4.4975 13.7163C5.27407 13.2147 6.17425 12.9484 7.09333 12.9484C8.01241 12.9484 8.9126 13.2147 9.68917 13.7163C10.4657 14.2179 11.0868 14.9342 11.48 15.7819C11.5102 15.8471 11.5579 15.9021 11.6175 15.9407C11.6772 15.9793 11.7463 15.9999 11.8169 16H17.5467C17.8437 16 18.1286 15.8796 18.3386 15.6653C18.5487 15.4509 18.6667 15.1602 18.6667 14.8571V1.14286C18.6667 0.839753 18.5487 0.549062 18.3386 0.334735C18.1286 0.120408 17.8437 0 17.5467 0ZM17.92 14.8571C17.92 14.9582 17.8807 15.0551 17.8107 15.1265C17.7406 15.198 17.6457 15.2381 17.5467 15.2381H12.0475C11.361 13.922 10.2005 12.9293 8.81067 12.4695C9.44322 12.0857 9.93479 11.5006 10.2098 10.804C10.4849 10.1075 10.5282 9.33804 10.3332 8.61393C10.1381 7.88982 9.71548 7.25108 9.13018 6.79584C8.54487 6.3406 7.82928 6.09405 7.09333 6.09405C6.35739 6.09405 5.64179 6.3406 5.05649 6.79584C4.47118 7.25108 4.04854 7.88982 3.85349 8.61393C3.65844 9.33804 3.70177 10.1075 3.97682 10.804C4.25188 11.5006 4.74344 12.0857 5.376 12.4695C3.98614 12.9293 2.82562 13.922 2.1392 15.2381H1.12C1.02099 15.2381 0.926027 15.198 0.856014 15.1265C0.786 15.0551 0.746667 14.9582 0.746667 14.8571V1.14286C0.746667 1.04182 0.786 0.944926 0.856014 0.873483C0.926027 0.802041 1.02099 0.761905 1.12 0.761905H17.5467C17.6457 0.761905 17.7406 0.802041 17.8107 0.873483C17.8807 0.944926 17.92 1.04182 17.92 1.14286V14.8571ZM7.09333 12.1905C6.57647 12.1905 6.0712 12.0341 5.64144 11.7411C5.21168 11.448 4.87673 11.0316 4.67893 10.5443C4.48113 10.057 4.42938 9.52085 4.53021 9.00357C4.63105 8.48629 4.87995 8.01113 5.24543 7.63819C5.61091 7.26525 6.07656 7.01128 6.5835 6.90838C7.09043 6.80549 7.61589 6.8583 8.09341 7.06013C8.57094 7.26196 8.97908 7.60376 9.26624 8.04229C9.5534 8.48082 9.70667 8.99639 9.70667 9.52381C9.70667 9.874 9.63907 10.2208 9.50774 10.5443C9.37641 10.8678 9.18391 11.1618 8.94124 11.4094C8.69857 11.6571 8.41048 11.8535 8.09341 11.9875C7.77635 12.1215 7.43652 12.1905 7.09333 12.1905ZM15.68 3.42857V12.5714C15.68 12.6725 15.6407 12.7694 15.5707 12.8408C15.5006 12.9122 15.4057 12.9524 15.3067 12.9524H13.8133C13.7143 12.9524 13.6194 12.9122 13.5493 12.8408C13.4793 12.7694 13.44 12.6725 13.44 12.5714C13.44 12.4704 13.4793 12.3735 13.5493 12.3021C13.6194 12.2306 13.7143 12.1905 13.8133 12.1905H14.9333V3.80952H3.73333V4.95238C3.73333 5.05342 3.694 5.15031 3.62399 5.22176C3.55397 5.2932 3.45901 5.33333 3.36 5.33333C3.26099 5.33333 3.16603 5.2932 3.09601 5.22176C3.026 5.15031 2.98667 5.05342 2.98667 4.95238V3.42857C2.98667 3.32754 3.026 3.23064 3.09601 3.1592C3.16603 3.08775 3.26099 3.04762 3.36 3.04762H15.3067C15.4057 3.04762 15.5006 3.08775 15.5707 3.1592C15.6407 3.23064 15.68 3.32754 15.68 3.42857Z" fill="white"/>
</svg>
