<svg width="52" height="52" viewBox="0 0 52 52" fill="none" xmlns="http://www.w3.org/2000/svg">
<path d="M51.0056 25.9972C51.0056 32.6965 48.3722 38.7791 44.0778 43.2675C43.5167 43.8619 42.9222 44.423 42.3 44.9562C41.7278 45.4451 41.1389 45.9117 40.5222 46.3505C36.4278 49.2724 31.4167 50.9944 26.0056 50.9944C19.7556 50.9944 14.0389 48.7003 9.65556 44.9062C8.88889 44.2452 8.16111 43.5342 7.48333 42.7842C7.19444 42.4676 6.91667 42.1454 6.65 41.8177C6.59444 41.751 6.53889 41.6844 6.48889 41.6177C6.15 41.1955 5.82778 40.7678 5.51667 40.329C5.47778 40.279 5.44444 40.229 5.40556 40.1734C4.82222 39.3291 4.29444 38.4514 3.82222 37.5459C3.60556 37.1293 3.4 36.7071 3.20556 36.2739C2.95 35.7128 2.71667 35.1351 2.50556 34.5518C1.53333 31.8855 1 29.0024 1 25.9972C1 20.009 3.10556 14.5096 6.62222 10.2045C7.10556 9.6046 7.62222 9.03244 8.16111 8.4825C12.7056 3.86635 19.0167 1 26.0056 1C39.8111 1 51.0056 12.1932 51.0056 25.9972Z" stroke="#E1251B" stroke-width="0.7" stroke-linecap="round" stroke-linejoin="round"/>
<path d="M40.3168 33.3354V38.2848H8.51123V19.2203C8.51123 18.9148 8.75567 18.6648 9.06679 18.6648H18.8001" stroke="#E1251B" stroke-width="0.7" stroke-linecap="round" stroke-linejoin="round"/>
<path d="M9.50586 40.0403H42.7725V40.6736C42.7725 41.4958 42.1059 42.1681 41.2836 42.1681H11.6781" stroke="#E1251B" stroke-width="0.7" stroke-linecap="round" stroke-linejoin="round"/>
<path d="M14.8281 35.3407V31.1134C14.8281 29.7746 15.9115 28.6914 17.2503 28.6914C18.5892 28.6914 19.6726 29.7746 19.6726 31.1134V35.3407" stroke="#E1251B" stroke-width="0.7" stroke-linecap="round" stroke-linejoin="round"/>
<path d="M23.6003 31.802C22.4892 34.2296 20.0392 35.9183 17.1892 35.9183C13.2947 35.9183 10.1392 32.7631 10.1392 28.869C10.1392 24.975 13.2947 21.8198 17.1892 21.8198H17.2225" stroke="#E1251B" stroke-width="0.7" stroke-linecap="round" stroke-linejoin="round"/>
<path d="M45.0059 22.231V18.6759L42.6836 18.4926C42.4448 17.326 41.9892 16.2373 41.3614 15.2707L42.9003 13.4709L40.3892 10.9601L38.5947 12.4932C37.6392 11.8711 36.5614 11.41 35.4114 11.1656L35.2225 8.76587H31.667L31.4781 11.1656C30.3392 11.4045 29.2781 11.8544 28.3336 12.4655L26.4614 10.8656L23.9503 13.3765L25.5447 15.2429C24.9336 16.1762 24.4892 17.226 24.2392 18.3537L21.7559 18.5481V22.1033L24.2114 22.2977C24.4447 23.4254 24.8781 24.4808 25.4725 25.4251L23.8614 27.3138L26.3725 29.8246L28.2225 28.2415C29.1614 28.8692 30.217 29.3247 31.3503 29.5858L31.5392 32.0188H35.0947L35.2781 29.6413C36.4392 29.4136 37.517 28.9692 38.4836 28.3637L40.3003 29.9191L42.8114 27.4082L41.2892 25.6307C41.9281 24.6697 42.4003 23.5864 42.6503 22.4255L45.0003 22.2421L45.0059 22.231ZM33.4447 26.825C29.8892 26.825 27.0114 23.942 27.0114 20.3924C27.0114 16.8427 29.8947 13.9597 33.4447 13.9597C36.9947 13.9597 39.8781 16.8427 39.8781 20.3924C39.8781 23.942 36.9947 26.825 33.4447 26.825Z" stroke="#E1251B" stroke-width="0.7" stroke-linecap="round" stroke-linejoin="round"/>
<path d="M17.2499 27.9196C18.3115 27.9196 19.1721 27.059 19.1721 25.9974C19.1721 24.9358 18.3115 24.0752 17.2499 24.0752C16.1882 24.0752 15.3276 24.9358 15.3276 25.9974C15.3276 27.059 16.1882 27.9196 17.2499 27.9196Z" stroke="#E1251B" stroke-width="0.7" stroke-linecap="round" stroke-linejoin="round"/>
</svg>
